<svg version="1.2" xmlns="http://www.w3.org/2000/svg" viewBox="0 0 2584 2359" width="2584" height="2359">
    <style>.a{fill:#157b60}.b{fill:#e84e2b}</style>
    <path class="a" d="m793.8 389c0.4 0 4.5 1.6 9.2 3.6 4.7 1.9 13.5 5.9 19.5 8.8 6.1 2.9 16.4 8.3 23 12.1 6.6 3.7 17.6 10.5 24.5 15 6.9 4.5 16.6 11.3 21.6 15.1 5 3.8 14.5 11.5 21 17 6.6 5.6 18.2 16.6 25.9 24.5 7.7 7.9 18 19.4 22.8 25.4 4.9 6.1 12.8 16.9 17.6 24 4.8 7.1 11.3 17.5 14.4 23 3.1 5.5 8.1 15.4 11.1 22 3 6.6 7.2 17.2 9.4 23.5 2.2 6.3 5.1 16.2 6.5 22 1.5 5.8 3.4 15.5 4.4 21.5 1.3 8.2 1.7 16.5 1.7 32.5-0.1 17.5-0.5 23.8-2.3 33.5-1.2 6.6-3.5 17-5.2 23-1.7 6-5.5 17.1-8.4 24.5-2.9 7.4-6.9 16.9-8.8 21-1.9 4.1-20.1 41.7-40.4 83.5-20.4 41.8-62 127.1-92.6 189.5-30.5 62.4-69.1 141.2-85.6 175-16.6 33.8-32.7 66-35.8 71.5-3.1 5.5-8.3 14.3-11.6 19.5-3.3 5.2-10.4 15.3-15.7 22.5-5.4 7.2-14.6 18.1-20.6 24.4-6 6.3-15.2 15-20.4 19.3-5.2 4.4-14.2 11.1-20 14.9-5.8 3.8-15.9 9.6-22.5 12.8-6.6 3.3-16.5 7.6-22 9.6-5.5 2-15.2 5-21.5 6.6-6.3 1.6-15.8 3.5-21 4.3-5.2 0.9-15.3 2-22.5 2.6-7.1 0.5-18 1-24 1-6 0-17.1-0.5-24.5-1-7.4-0.6-18.9-1.7-25.5-2.6-6.6-0.9-18.7-2.9-27-4.5-8.2-1.6-22.9-4.9-32.5-7.4-9.6-2.4-36.4-9.8-59.5-16.4-23.1-6.6-44.5-12.6-47.5-13.4-3.7-1-5.4-1.9-5.2-2.8 0.2-0.8 4.2-9.7 8.9-19.9 4.6-10.2 14-29.3 20.7-42.5 6.7-13.2 16.2-30.8 21.1-39 4.8-8.3 12.9-21.3 18-29 5.1-7.7 12.5-18.3 16.4-23.5 4-5.2 11.1-14.2 15.9-20 4.8-5.8 14.3-16.1 21.2-23 6.9-6.9 17.5-16.5 23.5-21.3 6.1-4.9 16.6-12.6 23.5-17.2 6.9-4.6 17.7-11.1 24-14.4 6.3-3.3 16.5-8.1 22.5-10.6 6-2.5 17.1-6.6 24.5-8.9 7.4-2.4 20-5.7 28-7.4 8-1.7 20.1-3.7 27-4.6 6.9-0.8 16.3-1.8 29.5-2.9l-2.6-2.1c-1.4-1.1-21.6-17.4-45-36.1-23.3-18.7-48.9-39.6-56.9-46.4-8-6.9-19.6-17.2-25.8-23-6.2-5.8-16.4-16.2-22.7-23.1-6.2-6.9-15.5-17.7-20.5-24-5.1-6.3-12.9-16.7-17.5-23-4.5-6.3-13.1-18.9-19.2-28-6-9.1-20-30.9-31.1-48.5-11-17.6-23.9-37.9-28.6-45-5.7-8.8-8.1-13.2-7.3-13.7 0.7-0.4 10.2-2.9 21.2-5.6 11-2.8 28.1-6.6 38-8.6 9.9-1.9 25.9-4.7 35.5-6 9.6-1.4 24.5-3.3 33-4.1 8.5-0.9 29.7-1.9 47-2.2 20.3-0.4 37.6-0.1 48.5 0.6 9.4 0.7 22.6 1.9 29.5 2.7 6.9 0.8 19.5 2.6 28 4 8.5 1.4 21.6 3.9 29 5.5 7.4 1.6 19.4 4.6 26.5 6.5 7.2 2 20.7 6.1 30 9.1 9.4 3 25 8.6 34.8 12.4 9.7 3.8 17.9 6.8 18.1 6.6 0.3-0.1-1.7-3.6-4.3-7.7-2.7-4.1-7.8-12.9-11.5-19.5-3.6-6.6-9-17.4-12-24-2.9-6.6-7-16.5-9.1-22-2-5.5-5.3-15.4-7.1-22-1.9-6.6-4.4-16.5-5.5-22-1.1-5.5-2.7-14.5-3.5-20-0.8-5.5-1.8-20.1-2.1-32.5-0.4-14.1-0.2-27.4 0.6-35.5 0.6-7.1 2.3-20 3.7-28.5 1.4-8.5 4.4-22.7 6.6-31.5 2.2-8.8 6.3-23.2 9.3-32 2.9-8.8 7.8-22.5 11-30.5 3.2-8 9.3-22.4 13.7-32 4.3-9.6 12.9-27.2 19-39 6.1-11.8 11.7-22.5 12.5-23.8 0.8-1.2 1.8-2.2 2.1-2.2z"/>
    <path fill-rule="evenodd" class="b" d="m1519 405.6c9.6 0.3 22.7 1.2 29 2 6.3 0.8 15.1 2.1 19.5 3 4.4 0.8 13.2 2.9 19.5 4.5 6.3 1.7 17.1 5.1 24 7.6 6.9 2.5 17.9 7.1 24.5 10.2 6.6 3.2 17.4 9 24 13 6.6 4 17.2 11.2 23.5 15.9 7 5.2 18 15.1 28.1 25.1 10.2 10.3 19.9 21.2 25.5 28.6 4.9 6.6 12.1 17.4 16 24 4 6.6 117.1 228.9 251.4 494 134.3 265.1 254 501.1 266 524.5 12 23.4 24.1 47.7 27 54 2.9 6.3 8 18.7 11.5 27.5 3.4 8.8 7.9 21.2 10 27.5 2 6.3 5.4 18.2 7.5 26.5 2.1 8.2 5 22 6.4 30.5 1.4 8.5 3 20.7 3.6 27 0.5 6.3 1 18.5 1 27 0 8.5-0.5 20.7-1.1 27-0.6 6.3-2.1 17.3-3.4 24.5-1.3 7.2-4 18.4-5.9 25-1.9 6.6-5.6 17.2-8.1 23.5-2.5 6.3-7.4 16.9-10.9 23.5-3.4 6.6-9.2 16.5-12.9 22-3.6 5.5-10.4 14.7-15 20.5-4.6 5.8-14.2 16.1-21.3 23-7.1 6.9-18.1 16.4-24.4 21.1-6.3 4.8-16.3 11.6-22.3 15.3-5.9 3.6-16.7 9.6-24 13.2-7.2 3.7-17.9 8.6-23.7 10.9-5.8 2.4-16.1 6.2-23 8.5-6.9 2.2-19.5 5.9-28 8-8.5 2.2-22 5.1-30 6.4-8 1.4-20.1 3.2-27 4.1-6.9 0.8-19 1.9-27 2.4-9.3 0.7-199.7 1.1-532 1.1-463.5 0.1-519.1-0.1-532.5-1.5-8.3-0.8-22-2.7-30.5-4.1-8.5-1.4-22.5-4.3-31-6.5-8.5-2.1-19.8-5.2-25-6.9-5.2-1.7-15.1-5.3-22-8-6.9-2.7-18.1-7.8-25-11.3-6.9-3.5-17.1-9.2-22.8-12.8-5.7-3.5-15.2-10-21-14.4-5.9-4.4-16.5-13.6-23.6-20.5-7-6.9-16.5-17-20.9-22.5-4.4-5.5-10.6-13.8-13.7-18.5-3.2-4.7-8.2-13-11.3-18.5-3.1-5.5-7.8-15.2-10.5-21.5-2.7-6.3-6.6-16.7-8.7-23-2-6.3-4.7-16.2-6-22-1.3-5.8-3.1-15.2-4-21-1-6-1.9-20.1-2.2-33-0.4-13.9-0.1-27.5 0.6-35.5 0.6-7.2 2.3-20 3.7-28.5 1.4-8.5 4.4-22.7 6.6-31.5 2.2-8.8 6.4-23.2 9.3-32 2.9-8.8 8.1-23 11.5-31.5 3.4-8.5 10.6-24.5 15.9-35.5 5.4-11 126.9-251.1 270-533.5 143.2-282.4 263-518 266.3-523.5 3.2-5.5 8.8-14 12.3-19 3.6-5 10.2-13.4 14.7-18.9 4.6-5.4 12.8-14.2 18.3-19.4 5.5-5.3 14.3-13 19.5-17.2 5.2-4.1 14.2-10.7 20-14.5 5.8-3.8 16.8-10.2 24.5-14.2 7.7-3.9 19.2-9.3 25.5-11.8 6.3-2.5 16.7-6.2 23-8 6.3-1.9 15.5-4.3 20.5-5.4 5-1.1 13.7-2.7 19.5-3.6 5.8-0.9 15.7-2 22-2.5 6.3-0.5 19.4-0.6 29-0.4zm-471.8 1254.4c-19.9 39.3-38.1 75.4-40.2 80.2-2.2 4.9-4 9.1-4 9.5 0 0.5 226.2 0.7 502.7 0.5 276.6-0.1 505.7-0.6 509.2-1l6.3-0.7c-14.6-28.7-129-254.3-263.6-520-134.7-265.7-245.2-483.3-245.5-483.7-0.3-0.4-96.9 189.3-214.6 421.5-117.7 232.1-230.3 454.3-250.3 493.7z"/>
</svg>