<svg version="1.2" xmlns="http://www.w3.org/2000/svg" viewBox="0 0 311 317" width="311" height="317">
	<title>Icon_7</title>
	<style>
		.s0 { fill: #32485e } 
		.s1 { fill: #fbe16d } 
		.s2 { fill: #30475d } 
		.s3 { opacity: .9;fill: #273849 } 
		.s4 { fill: #636d62 } 
		.s5 { fill: #495a60 } 
		.s6 { fill: #a59f66 } 
		.s7 { opacity: .3;fill: #040608 } 
		.s8 { fill: #ccbd69 } 
		.s9 { fill: #7f8364 } 
		.s10 { opacity: .5;fill: #0b0f14 } 
	</style>
	<g id="Background">
		<path id="Path 0" fill-rule="evenodd" class="s0" d="m214.3 22c2 0 5 0.8 6.7 1.8 1.6 0.9 3.9 3.3 4.9 5.2 1.3 2.2 2 5.4 2.1 13.5l3.2-3.1c1.8-1.8 4.3-3.7 5.5-4.3 1.3-0.6 4.4-1.1 7-1.1 4.2 0.1 5.3 0.6 8.5 3.8 3.3 3.3 3.7 4.3 3.8 8.7 0 3.1-0.6 6-1.6 7.5-1 1.4-2.9 3.7-6.9 8h4.7c2.7 0 6.4 0.8 8.4 1.8 2 0.9 4.5 3 5.5 4.7 1 1.7 1.9 4.8 1.9 7 0 2.3-0.9 5.4-2 7.3-1.1 1.7-3.4 3.9-5 4.7-1.6 0.8-5.3 1.5-8 1.5-2.8 0-5 0.3-5 0.8 0.1 0.4 1.9 2.6 4 5 3.5 3.7 4 4.8 4 9 0 2.7-0.7 5.9-1.8 7.7-1 1.7-3.5 3.8-5.5 4.8-2 0.9-4.6 1.7-5.7 1.7-1.1 0-3.5-0.6-5.3-1.4-1.7-0.7-4.3-2.5-5.7-4-1.4-1.5-2.8-2.6-3.3-2.6-0.4 0-0.7 1.8-0.7 4 0 2.2-0.5 5.2-1.1 6.8-0.6 1.5-2 3.7-3.2 5-1.2 1.3-4 2.7-6.2 3.3-2.7 0.7-5 0.7-7 0-1.7-0.6-4.4-2.4-6-4.2-2.5-2.5-3.1-4.1-4-15.1l-2.2 2.4c-1.2 1.2-5.1 6.8-8.7 12.3-3.7 5.5-9.3 15.4-12.5 22-3.3 6.6-7.6 16.5-9.6 22-2 5.5-5 15.2-6.6 21.5-1.6 6.3-3.5 16-4.3 21.5-0.8 5.5-1.8 13.6-2.9 26l7.9-8.1c4.3-4.4 9.3-9.2 10.9-10.5 1.7-1.3 4.3-4.7 5.9-7.4 1.6-2.8 5.5-7.6 8.5-10.8 3.9-4.1 7.9-7 13.1-9.5 6.3-3.1 8.8-3.7 15.5-4.1 5.3-0.2 10.4 0.2 15 1.3 3.8 0.9 7.9 2.3 9 3 2 1.5 2 1.5-0.2 5.8-1.3 2.4-4.4 6.4-7 9-2.7 2.6-7.5 6.3-10.8 8.2-3.3 2-9.6 4.5-14 5.7-6.3 1.6-10.3 2-30 1.5l-5.9 4.9c-3.2 2.8-7.3 6.8-9 8.9-3.1 4-3.1 4-0.6 3.3 1.4-0.4 6.1-1.4 10.5-2.3 6-1.2 11.2-1.5 20.5-1.1 6.9 0.2 15.4 1.2 19 2.2 3.6 0.9 10.5 3.6 15.5 6 6.9 3.2 10.9 6 25 19.4l13 0.3c12.6 0.3 13 0.4 13.5 4.8h-241l0.2-2.2c0.3-2.2 0.6-2.3 26.3-2.8l5.5-5.1c3-2.8 8.6-6.6 12.5-8.4 3.8-1.8 9.5-3.9 12.5-4.6 3-0.7 9.3-1.3 14-1.3 4.7 0 11 0.6 14 1.4 3 0.7 7.9 2.3 10.7 3.6 2.9 1.3 5.3 2 5.3 1.4 0-0.6-3.9-5-17.5-18.7l-9 0.5c-7.1 0.4-10.8 0-17.5-1.7-4.7-1.2-10.5-3.4-13-4.8-2.5-1.5-6.8-4.8-9.5-7.4-2.8-2.6-5.9-6.3-7-8.3-1.8-3.1-1.8-3.7-0.5-5.1 0.8-0.8 4.2-2.2 7.5-3.1 3.9-1 8.8-1.5 14-1.2 6.5 0.2 9.3 0.9 14.5 3.5 4.5 2.1 8.3 5.1 12.4 9.5 3.2 3.4 6.6 7.7 7.5 9.4 0.9 1.7 5.8 7.1 20.2 20.9l-0.1-5c0-2.7-0.7-9.5-1.5-15-0.8-5.5-2.7-14.1-4.1-19-1.4-4.9-4.9-13.9-7.8-20-2.9-6.1-7.5-13.9-14.9-24l-1.1 4.6c-0.6 2.5-1.8 5.3-2.6 6.3-0.8 1-2.7 2.5-4.3 3.2-1.5 0.8-3.4 1.4-4.2 1.4-0.8 0-3.1-0.8-5.1-1.7-2-1-4.3-3-5-4.5-0.8-1.6-1.4-4.1-1.4-5.8 0-1.7-0.2-3-0.5-3-0.3 0-1.9 1.1-3.5 2.5-2.2 1.8-4.2 2.5-7.3 2.5-2.3 0-5.2-0.7-6.5-1.5-1.2-0.8-2.9-3-3.8-4.7-1-2.1-1.4-4.5-1-6.5 0.3-1.8 1.7-4.6 5.6-9.3h-2.5c-1.4 0-4.1-0.8-6.1-1.7-2-1-4.3-3-5-4.5-0.8-1.6-1.4-4.3-1.4-6 0-1.8 0.8-4.3 1.7-5.6 1-1.2 3-2.9 4.5-3.7 1.5-0.8 4.1-1.5 8.8-1.5l-2.8-3.7c-1.9-2.6-2.7-4.8-2.7-7.9 0-3.2 0.6-4.9 2.5-6.9 1.4-1.4 4-3 5.7-3.5 2.4-0.7 4.2-0.6 6.5 0.3 1.8 0.8 4 2.2 4.8 3.1 0.8 0.9 1.8 1.7 2.2 1.6 0.5 0 0.8-1.3 0.8-3 0-1.7 0.4-4.1 1-5.5 0.5-1.4 2.5-3.4 4.2-4.5 1.8-1.1 4.8-2 6.5-2 2.4 0 4.3 0.9 6.7 3.3 2.3 2.2 3.5 4.4 4.6 11.7l2.7-2.3c1.6-1.3 4.3-2.6 6-3 2.3-0.5 4.4-0.2 6.9 1.1 2 0.9 4.3 2.9 5 4.5 0.8 1.5 1.4 3.9 1.4 5.5 0 1.5-1.1 4.4-2.5 6.5-1.4 2-2.5 3.9-2.5 4.2 0 0.3 1.5 0.5 3.2 0.5 2-0.1 4.5 0.9 6.2 2.2 1.6 1.3 3.5 3.8 4.3 5.6 0.9 2.3 1 4.1 0.3 6.7-0.6 1.9-2.2 4.4-3.8 5.6-1.5 1.1-4.4 2.3-6.5 2.7-2 0.4-3.7 0.8-3.7 1 0 0.1 1.1 1.5 2.5 3.2 1.7 2.1 2.5 4.2 2.5 7 0 3.2-0.7 4.7-3.4 7.5-1.9 1.9-4.1 3.5-5 3.5-0.9 0-1.6 0.2-1.6 0.5 0 0.3 2 4 4.5 8.3 2.4 4.2 5.6 10.5 7 14 1.4 3.4 3.6 10.1 5 15 1.4 4.8 3.2 12.8 4 17.7 0.7 4.9 1.6 12.3 1.9 16.3 0.4 4.3 1 7 1.6 6.7 0.5-0.3 1-4.1 1-8.5 0-4.4 0.7-13.3 1.5-19.7 0.9-6.5 2.7-16.7 4.2-22.8 1.4-6.1 4.3-16.2 6.5-22.5 2.1-6.3 6.7-17.3 10.2-24.5 3.4-7.2 8.3-16.3 10.9-20.2 2.6-4 4.7-7.5 4.7-7.8 0-0.3-1.6-0.7-3.5-1-1.9-0.3-4.9-1.6-6.5-3-1.7-1.4-3.5-4.2-4.2-6.2-0.9-3.1-0.8-4.6 0.5-8.3 0.9-2.5 2.8-5.6 4.2-7 1.4-1.4 2.5-2.8 2.5-3.2 0-0.5-2.5-0.8-5.5-0.8-4.8 0-5.9-0.4-9.1-3.2-1.9-1.8-4-4.6-4.5-6.3q-1-3 0-7c0.6-2.2 2-5 3.3-6.2 1.3-1.2 3.5-2.6 5-3.2 1.6-0.6 4.6-1.1 6.8-1.1 2.2 0 4-0.3 4-0.7 0-0.5-1.1-1.9-2.6-3.3-1.5-1.4-3.3-4-4-5.7-0.8-1.8-1.4-4.2-1.4-5.3 0-1.1 0.8-3.7 1.7-5.7 1-2 3.1-4.5 4.8-5.5 2.2-1.4 4.5-1.8 8.2-1.6 4.4 0.3 5.7 0.8 9 4 2.1 2.1 4.1 3.8 4.5 3.8 0.5 0 0.8-2.2 0.8-5 0-2.7 0.7-6.3 1.5-8 0.8-1.6 3-3.9 4.7-5 1.8-1.1 5-2 7-2zm-12 174.4c-1.5 0.8-4.6 2.8-7 4.5-2.3 1.7-4 3.5-3.7 4.1 0.3 0.6 3.3-0.2 7.2-1.9 3.8-1.7 8.6-3.3 10.8-3.6 3.1-0.6 4.3-0.3 5.5 1 1.1 1.2 1.2 2.1 0.5 3.1-0.6 0.8-4.9 2.8-9.8 4.5-4.8 1.6-10.8 4-13.5 5.4l-4.7 2.4c8.5 0.1 13.9-0.6 17.5-1.5 3.6-0.8 9.6-3.2 13.4-5.2 4-2.2 8.5-5.6 10.8-8.2 2.1-2.5 3.9-4.8 3.8-5.3 0-0.4-2.3-1.2-5-1.7-2.8-0.6-7.4-1-10.3-0.9-2.8 0.1-6.9 0.5-9 1-2 0.5-4.9 1.5-6.5 2.3zm-129.3 13.3c0.5 1 2.5 3.3 4.5 5 2 1.8 6 4.5 8.8 5.9 2.9 1.5 8.2 3.3 11.8 4 3.6 0.8 7.8 1.4 9.5 1.3 2.9 0 2.9-0.1-1.5-2.3-2.5-1.3-7.4-3.3-11-4.5-3.6-1.1-7.2-2.7-8-3.6-1.3-1.4-1.3-1.8 0.5-3.6l2-2c12.4 4 16.4 5 17 4.8 0.5-0.2-0.8-1.6-3-3-2.2-1.5-6.3-3.4-9-4.2-2.8-0.8-7.5-1.5-10.5-1.4-3 0-7 0.5-8.8 1-2.6 0.7-3 1.2-2.3 2.6zm90.1 35.5c-3.6 1.1-8.1 2.9-10 3.8-1.9 1-5.5 3.1-8 4.8-2.5 1.7-5.6 4.2-7 5.6l-2.5 2.7 108-0.2c-6.3-5.7-11.7-9.3-16.1-11.6-4.3-2.3-11.3-5.1-15.4-6.3-5.3-1.5-11.2-2.3-20-2.5-6.9-0.2-14.7 0-17.5 0.6-2.7 0.5-7.9 1.9-11.5 3.1zm-79.8 10.7c-3.1 1.6-6.4 3.6-7.2 4.5-1.4 1.6 0.3 1.7 24.3 1.6h25.7c4.6-5 6-6.8 6-7.3 0-0.4-2.1-1.4-4.7-2.3-3-1-9.3-1.8-16.3-2-8.2-0.3-13 0-16.7 1.1-2.9 0.8-7.9 2.8-11 4.4z"/>
		<path id="Path 1" class="s1" d="m214.5 28c1.1 0 3.1 0.8 4.5 1.9 2.2 1.7 2.5 2.8 3.2 16.6l-15.2-0.5v-6.8c0-3.9 0.5-7.4 1.2-8.3 0.7-0.9 2-1.9 2.8-2.2 0.8-0.3 2.4-0.6 3.5-0.7zm-28.9 12c2.6 0 4.6 1.1 13.4 9l-11.2 11.5-3.5-3.5c-1.9-1.9-4.1-4.7-4.9-6.3-0.8-1.5-1.1-3.7-0.8-5 0.4-1.2 1.3-3 2.2-4 0.9-1 2.9-1.7 4.8-1.7zm57.1 0c2 0 4.1 0.8 5.3 2 1.1 1.1 2 3.3 2 5 0 2.2-1.3 4.4-9.5 13.2l-10.6-10.7 4.8-4.8c3.7-3.7 5.4-4.7 8-4.7zm-58.2 28v15h-6.8c-5.4 0-7.1-0.4-8.7-2-1.2-1.2-2-3.3-2-5.3 0-1.7 0.4-3.7 0.8-4.2 0.4-0.6 1.6-1.6 2.7-2.2 1.1-0.7 4.7-1.3 14-1.3zm59 0h5.7c3.2 0 6.9 0.5 8.3 1 1.4 0.5 3 2 3.6 3.2 0.6 1.3 0.8 3.5 0.5 5-0.3 1.6-1.3 3.5-2.2 4.3-1.1 1-3.7 1.5-15.4 1.5l-0.3-7.5zm-55.6 23.3l10.8 10.2-4.1 4.3c-2.2 2.4-5.2 4.8-6.6 5.3-1.6 0.7-3.3 0.6-5 0-1.3-0.6-3-2.2-3.7-3.6-0.7-1.4-1-3.5-0.6-4.7 0.3-1.3 2.5-4.4 4.9-6.9zm52.6-0.5l4.8 5.1c3 3.3 4.7 6 4.7 7.6 0 1.4-0.4 3.4-1 4.5-0.5 1.1-2.1 2.5-3.5 3-1.8 0.7-3.4 0.6-5.7-0.4-1.8-0.7-5-3.1-10.8-9.1l2.6-1.5c1.5-0.8 4.1-3.2 5.8-5.4zm-140.9 4.3c0.7 0 2.3 0.4 3.4 1 1.6 0.8 2 2 2 12h-10l-0.1-4.9c0-3.4 0.5-5.5 1.6-6.5 0.9-0.9 2.3-1.6 3.1-1.6zm-22.4 10c2.4 0 4.2 0.8 9.8 6.5l-7.5 7.6-3.8-4.1c-2-2.2-3.7-4.2-3.6-4.4 0-0.3 0.5-1.6 1-3 0.7-2.1 1.5-2.6 4.1-2.6zm45.6 0c1.5 0 3.3 0.5 4 1.2 0.7 0.7 1.2 2.3 1.2 3.5 0 1.3-1.5 3.9-6.5 9.4l-8.5-8.1 3.5-3c2-1.7 4.7-3 6.3-3zm84.2 0.5h15v5.7c0 3.2-0.5 6.8-1.2 8-0.6 1.3-1.6 2.6-2.2 3-0.6 0.4-2.6 0.8-4.4 0.8-1.9 0-4-0.8-5.2-2-1.6-1.6-2-3.3-2-8.8zm-131 21.5v11.5l-4.8-0.5c-2.7-0.2-5.6-1.1-6.6-2-0.9-0.8-1.7-2.4-1.7-3.6 0-1.2 0.7-2.9 1.6-3.8 1-1 3.4-1.6 11.5-1.6zm48.5 0h4.2c2.4 0 5.2 0.5 6.3 1 1.3 0.7 2 2 2 3.8 0 1.5-0.4 3.3-0.8 4-0.4 0.7-3.2 1.5-11.7 2.5v-5.6zm-45.6 18.9c0.3 0 2.3 1.7 8.2 7.6l-3.6 3.2c-1.9 1.8-4.5 3.2-5.8 3.2-1.2 0-2.7-0.3-3.3-0.7-0.6-0.4-1.4-1.5-1.7-2.5-0.4-1-0.2-2.8 0.4-4 0.6-1.2 2.1-3.3 3.2-4.5 1.1-1.2 2.3-2.3 2.6-2.3zm42.3 0.1c0.4 0 2.1 1.5 3.8 3.5 1.6 1.9 3 4.1 3 5 0 0.8-0.5 2.4-1 3.5-0.6 1.2-2 2-3.8 2-1.8 0-3.9-1.2-9.7-7l3.4-3.5c1.9-2 3.8-3.5 4.3-3.5zm-26.2 11h10v4.7c0 2.6-0.4 5.4-0.8 6.1-0.4 0.7-2.1 1.3-3.7 1.3-1.8 0-3.5-0.7-4.3-1.8-0.7-1-1.2-3.8-1.2-6.1z"/>
		<path id="Path 2" class="s2" d="m214 52.1c0.8-0.1 4 0.6 7 1.5 3.8 1.1 6.8 2.9 9.6 5.8 2.9 2.8 4.7 5.8 5.8 9.6 1.1 3.6 1.5 6.9 1 9.5-0.4 2.2-1.5 5.6-2.4 7.5-1 1.9-3.6 5.2-5.9 7.2-2.3 2.1-6 4.3-8.3 4.9-2.4 0.6-6.3 0.9-8.8 0.7-2.7-0.2-6.5-1.6-9.4-3.3-3.3-2-6-4.7-8-8-1.8-3-3.2-6.8-3.4-9.5-0.2-2.5 0.1-6.4 0.7-8.8 0.6-2.3 2.8-6 4.9-8.3 2-2.3 5-4.8 6.7-5.7 1.7-0.8 4.3-1.9 6-2.3 1.7-0.4 3.7-0.7 4.5-0.8zm-110.7 62.9c1.8 0.3 4.8 1.5 6.7 2.7 2 1.2 4.5 3.9 5.7 6.4 1.3 2.4 2.3 6.1 2.3 8.2 0 2-0.6 5.2-1.4 7-0.7 1.7-2.6 4.4-4.2 5.9-1.6 1.5-4.1 3.2-5.6 3.7-1.6 0.6-4.7 1.1-7 1.1-2.6 0-5.9-0.9-8.3-2.3-2.1-1.2-4.9-3.5-6-5.2-1.2-1.7-2.4-4.7-2.8-6.7-0.4-2.1-0.2-5.6 0.3-7.8 0.6-2.2 2.2-5.4 3.8-7.1 1.5-1.8 3.6-3.6 4.7-4.2 1.1-0.6 3.5-1.3 5.3-1.7 1.9-0.3 4.8-0.3 6.5 0z"/>
		<path id="Path 3" class="s3" d="m100 262.4c14.6 0 20.4 0.2 13 0.3-7.4 0.2-19.3 0.2-26.5 0-7.2-0.1-1.1-0.3 13.5-0.3zm89.5 0.1c30.3 0 42.8 0.1 28 0.2-14.8 0.2-39.6 0.2-55 0-15.4-0.1-3.3-0.2 27-0.2z"/>
		<path id="Path 4" class="s4" d="m72 126.3c2.5 0 3.4 0.2 2 0.4-1.4 0.2-3.4 0.2-4.5 0-1.1-0.2 0-0.4 2.5-0.4zm56.5 0c2.8 0 4.1 0.2 2.9 0.4-1.1 0.2-3.4 0.2-5 0-1.6-0.2-0.7-0.4 2.1-0.4z"/>
		<path id="Path 5" class="s5" d="m222.7 37.5c0.2 1.6 0.2 4.6 0 6.5-0.2 1.9-0.4 0.6-0.4-3 0-3.6 0.2-5.1 0.4-3.5zm-43.2 29.8c3.9 0 5.2 0.2 3 0.4-2.2 0.2-5.3 0.2-7 0-1.6-0.2 0.2-0.4 4-0.4zm69.5 0c3.6 0 4.9 0.2 3 0.4-1.9 0.2-4.8 0.2-6.5 0-1.6-0.2-0.1-0.4 3.5-0.4zm-26.3 39.2c0.2 1.7 0.2 4.8 0 7-0.2 2.2-0.4 0.8-0.4-3 0-3.8 0.2-5.7 0.4-4z"/>
		<path id="Path 6" class="s6" d="m206.7 37.5c0.2 1.6 0.2 4.6 0 6.5-0.2 1.9-0.4 0.6-0.4-3 0-3.6 0.2-5.1 0.4-3.5zm-27.2 45.8c3.3 0 4.9 0.2 3.5 0.4-1.4 0.2-4.1 0.2-6 0-1.9-0.2-0.8-0.4 2.5-0.4zm69.5 0c3.6 0 4.9 0.2 3 0.4-1.9 0.2-4.8 0.2-6.5 0-1.6-0.2-0.1-0.4 3.5-0.4zm-42.3 23.7c0.2 1.4 0.2 4.1 0 6-0.2 1.9-0.4 0.8-0.4-2.5 0-3.3 0.2-4.9 0.4-3.5z"/>
		<path id="Path 7" class="s7" d="m109 249.3c3 0 4.2 0.2 2.5 0.4-1.7 0.2-4.1 0.2-5.5 0-1.4-0.2 0-0.4 3-0.4z"/>
		<path id="Path 8" class="s8" d="m105.7 101.5c0.2 1.1 0.2 3.1 0 4.5-0.2 1.4-0.4 0.5-0.4-2 0-2.5 0.2-3.6 0.4-2.5zm0 56c0.2 1.1 0.2 3.3 0 5-0.2 1.7-0.4 0.8-0.4-2 0-2.8 0.2-4.1 0.4-3z"/>
		<path id="Path 9" class="s9" d="m94.7 101.5c0.2 1.1 0.2 3.1 0 4.5-0.2 1.4-0.4 0.5-0.4-2 0-2.5 0.2-3.6 0.4-2.5zm0 56c0.2 1.1 0.2 3.3 0 5-0.2 1.7-0.4 0.8-0.4-2 0-2.8 0.2-4.1 0.4-3z"/>
		<path id="Path 10" class="s10" d="m190.5 216.3c2.2-0.1 3.2 0.1 2.3 0.4-0.9 0.2-2.7 0.2-4 0-1.3-0.2-0.5-0.4 1.7-0.4z"/>
	</g>
</svg>