<svg version="1.2" xmlns="http://www.w3.org/2000/svg" viewBox="0 0 297 272" width="297" height="272">
	<title>Icon_9</title>
	<style>
		.s0 { fill: #32485e } 
		.s1 { fill: #97c0a7 } 
	</style>
	<g id="Background">
		<path id="Path 0" class="s0" d="m251 14.4c6.1 0.3 11.8 1.2 16 2.6 3.6 1.2 7.7 2.9 9.1 3.7 2 1.1 2.5 2.1 2.2 4.1-0.2 1.5-2.1 6.3-4.2 10.7-2.1 4.4-5.7 10.4-8 13.3-2.2 2.8-6.2 6.8-8.8 8.7-2.7 1.9-7 4.2-9.8 5.1-3 1-6.3 1.4-8.2 1-1.8-0.3-4.5-1.9-6-3.4-1.6-1.6-3.4-4.7-4-7-0.7-2.3-1.6-4.2-2-4.2-0.5-0.1-3.5 1.7-6.8 3.9-3.3 2.2-8.6 6.2-11.9 8.9-3.2 2.7-8.3 7.7-11.4 11.3-3 3.5-7.8 10-10.7 14.4-2.9 4.4-7.3 12-9.8 17-2.4 5-6 13.3-8 18.5-2 5.2-4.7 13.6-6.2 18.5-1.4 4.9-3.9 15.5-5.5 23.5-1.6 8-3.6 20.9-4.5 28.8-0.8 7.8-1.5 19.7-1.3 38.7l1.5-7c0.8-3.8 2.8-10.4 4.4-14.5 1.6-4.1 4.8-10.9 7.2-15 2.4-4.1 8.2-11.5 12.8-16.4 5.1-5.4 11.8-11.1 17-14.5 4.7-3.1 9.3-6 10.3-6.6 1.6-0.9 1.6-1.3 0.2-4.8-0.9-2-1.6-4.8-1.6-6.2 0-1.4 0.7-3.9 1.5-5.5 0.9-1.8 3.2-3.8 5.8-5 2.9-1.3 6.4-2 11.2-2 3.8 0 9.5 0.7 12.5 1.6 3 0.9 8.1 3 11.4 4.7 3.2 1.8 6.6 4 7.5 4.9 1.5 1.7 1.4 2.2-1.9 7.3-1.9 3.1-5.8 7.9-8.5 10.7-2.7 2.8-7.3 6.4-10 7.9-2.7 1.6-7 3.3-9.5 3.9-3.7 1-5.2 0.9-8.3-0.4-2-0.9-4.5-2.8-5.4-4.4-1-1.5-2-3.9-2.8-8.2l-7.5 4.8c-4.1 2.6-10.8 7.9-14.9 11.7-4.2 4-9.9 10.9-13.2 16-3.3 4.9-7.2 12.6-8.8 17-1.6 4.4-3.6 11.4-4.4 15.5-0.9 4.1-1.7 10.2-2.1 19.5l128.9 1 0.5 4.5h-134c-88.7 0-134-0.3-134-1 0-0.6 0.2-1.7 0.5-2.5 0.4-1.3 8.1-1.5 121.5-1.5v-5.3c0-2.8-0.7-9.4-1.5-14.5-0.8-5-2.7-12.9-4.1-17.5-1.5-4.5-4.2-11.4-6.1-15.2-2-3.9-5.7-10.2-8.4-14-2.6-3.9-8.7-10.8-13.6-15.5-4.8-4.7-11.5-10.4-14.8-12.7-3.3-2.2-7.8-4.9-14-8.1l-0.7 4.6c-0.5 3.7-1.4 5.4-4.2 7.9-3.2 2.9-4.3 3.3-9.4 3.3-4.6 0-7.2-0.7-13.2-3.6-5.4-2.7-9.4-5.7-14.5-10.9-3.9-3.9-8.4-9.9-13.5-19.5l3.2-2.6c1.8-1.5 5.5-3.8 8.3-5.2 2.7-1.4 7.5-3.3 10.5-4.4 3-1 8.9-2.2 13-2.5 5.3-0.4 9.1-0.1 13 1 3.9 1.1 6.5 2.6 8.7 5.1 2.7 2.9 3.3 4.4 3.3 7.8 0 2.4-0.9 6.3-2 8.8-1.1 2.5-1.9 4.5-1.8 4.6 0.2 0 3 1.5 6.3 3.3 3.3 1.8 9.4 5.8 13.5 8.9 4.1 3.1 10.8 9 14.9 13.2 4 4.1 9.7 11.1 12.7 15.5 2.9 4.4 6.6 10.9 8.2 14.5 1.7 3.6 3.9 9.3 5.1 12.7 1.2 3.5 2.8 9.6 3.7 13.5 0.8 4 1.9 11.1 2.4 15.8 0.7 6.4 0.8 3.2 0.5-13-0.2-14.9-1-25.5-2.4-34.5-1.1-7.2-2.9-17.5-4.1-23-1.2-5.5-4-15.4-6.1-22-2.2-6.6-5.9-16.1-8.2-21-2.4-5-6.9-13.1-10.1-18-3.2-5-9.5-12.8-14-17.3-4.4-4.6-11.5-10.6-23.1-18.4l-0.9 3.3c-0.4 1.9-1.7 4.6-2.7 6.1-1 1.6-3.4 3.3-5.2 3.9-2.2 0.7-4.4 0.7-7.2-0.1-2.2-0.6-5.8-2.1-8-3.4-2.2-1.3-6.2-4.8-8.9-7.7-2.6-3-6.2-8.1-7.9-11.4-1.6-3.3-3.5-7.6-4.2-9.5-0.7-1.9-1-4-0.7-4.6 0.4-0.6 2.1-1.8 3.7-2.7 1.6-0.8 5.9-2.3 9.5-3.2 3.7-1 10-1.7 14.5-1.7 4.8 0 9.8 0.7 12.5 1.7 2.5 0.9 6 2.7 7.7 4.1 1.9 1.4 3.8 4 4.5 6.1 1 3.4 0.9 4.3-1.6 9.3-1.5 3-2.4 5.6-1.9 5.7 0.4 0.1 4.2 2.6 8.3 5.5 4.1 2.8 11 8.8 15.4 13.2 4.3 4.5 10.5 12.1 13.8 17.1 3.3 4.9 8 13.3 10.5 18.5 2.5 5.2 6.6 15.6 9 23 2.5 7.4 5.8 19.8 7.4 27.5 1.6 7.7 2.9 15.1 3 16.5 0 1.4 1.2-3.8 2.5-11.5 1.3-7.7 3.5-18.7 4.9-24.5 1.4-5.8 4.4-15.9 6.6-22.5 2.3-6.6 6-16.1 8.3-21 2.3-5 6.5-12.8 9.3-17.5 2.9-4.7 8.2-12.3 12-17 3.7-4.6 10.2-11.3 14.3-14.8 4.1-3.5 10.5-8.2 20.8-14.7l-2.4-3.5c-1.4-1.9-2.7-5.3-3-7.5-0.5-2.7-0.1-5 1-7.3 0.9-1.7 3.3-4.3 5.3-5.7 2.1-1.3 6.3-3.1 9.3-4 3.9-1 8.3-1.4 15-1.1z"/>
		<path id="Path 1" class="s1" d="m247.3 20.1c2-0.1 7 0.5 10.9 1.3 4 0.8 8.7 2 13.7 4.1l-2.2 5.5c-1.2 3-4.3 8.4-6.8 12-2.6 3.6-6.4 7.7-8.5 9.3-2.1 1.5-5.8 3.4-8.2 4.2-3 1.1-4.9 1.2-6.7 0.5-1.4-0.5-2.9-1.8-3.4-2.8-0.5-0.9-1.1-3.2-1.5-5-0.6-3.2-0.5-3.2 5.5-5.5 3.4-1.2 6.7-3 7.3-3.9 0.9-1.4 0.7-2.1-0.7-3.5-1.7-1.7-2-1.7-7.5 0.3-3.1 1.2-6.4 2.5-7.2 2.8-1.1 0.5-2.2-0.6-4-3.8-2.2-3.9-2.3-4.8-1.3-7 0.7-1.4 2.5-3.4 4-4.3 1.6-1 5-2.3 7.8-2.9 2.7-0.7 6.7-1.3 8.7-1.3zm-187.7 25.2c6.3 0.2 10.1 0.9 12.5 2.2 1.9 1 3.8 2.3 4.2 2.9 0.4 0.6 0.8 2.2 0.8 3.6 0.1 1.4-0.7 3.6-3.5 7.2l-6.3-2.3c-5.9-2.3-6.4-2.3-8-0.7-1 1.1-1.4 2.3-1 3.3 0.5 0.8 3.3 2.6 6.3 4 5.3 2.4 5.5 2.6 5 5.7-0.3 1.8-1.1 3.9-1.8 4.6-0.7 0.7-2.8 1.3-4.7 1.3-2.1-0.1-5.4-1.2-8.3-3.1-2.6-1.6-6.6-5.6-9-8.8-2.3-3.1-5.2-7.8-6.2-10.5-1.3-3.1-1.7-5.1-1-5.7 0.5-0.5 3.5-1.6 6.5-2.4 3.6-1.1 8.6-1.5 14.5-1.3zm-1.3 72.8c1.6-0.1 5.2 0.4 8 1.1 2.9 0.6 6.1 2 7 3 1 1 1.8 2.9 1.8 4.3 0 1.4-0.8 4-3.5 9.4l-4.8-2c-2.6-1-5.8-1.9-7.2-1.9-1.5 0-2.8 0.7-3.2 1.8-0.3 0.9-0.2 2.3 0.3 3.1 0.5 0.7 3.6 2.3 6.9 3.5 6 2.1 6 2.1 6.2 6.4 0.2 3.1-0.2 4.7-1.7 6.2-1.2 1.2-3.3 2-5.5 2-1.9 0-5.9-0.9-8.8-2-2.8-1.2-7.4-3.7-10-5.8-2.7-2-7.1-6.6-9.8-10.2-2.7-3.6-4.9-7.1-4.9-7.8 0-0.6 3.3-2.8 7.2-4.8 4-2 10-4.2 13.3-4.9 3.3-0.8 7.2-1.4 8.7-1.4zm165.3 23.2c6.6 0.3 9.3 1 15.3 3.8 4 1.9 7.3 4 7.2 4.7 0 0.6-1.7 3.3-3.8 6-2.1 2.6-5.4 6-7.3 7.6-1.9 1.6-5.2 3.7-7.4 4.7-2.2 1-5.9 1.9-8.3 1.9-3.6 0-4.4-0.4-5.2-2.5-0.6-1.4-1-3.4-1-4.5 0-1.5 1.2-2.4 4.7-3.7 2.7-0.9 5.4-2.1 6.1-2.7 0.7-0.6 1.3-1.9 1.2-2.8 0-1-0.8-2.1-1.8-2.4-0.9-0.4-3.5-0.1-5.7 0.6-2.2 0.7-4.6 1.4-5.3 1.6-0.7 0.2-1.7-1.2-2.5-3.5-1-3.2-1-4.3 0.1-5.6 0.8-1 2.3-2.1 3.5-2.6 1.2-0.5 5.8-0.8 10.2-0.6z"/>
	</g>
</svg>