<svg version="1.2" xmlns="http://www.w3.org/2000/svg" viewBox="0 0 201 336" width="201" height="336">
	<title>Icon_6</title>
	<style>
		.s0 { fill: #18161b } 
		.s1 { fill: #8ea7d6 } 
		.s2 { fill: #f15a37 } 
		.s3 { opacity: .1;fill: #000000 } 
		.s4 { opacity: .2;fill: #010101 } 
		.s5 { opacity: .9;fill: #111013 } 
		.s6 { fill: #672f25 } 
	</style>
	<g id="Background">
		<path id="Path 0" fill-rule="evenodd" class="s0" d="m98 42.1c1.4 0 4 0.6 5.8 1.2 1.8 0.7 4.8 2.8 6.8 4.7 1.9 1.9 3.7 4.3 3.9 5.2 0.4 1.3 1.2 1.6 2.8 1.3 1.2-0.3 3.5-0.8 5.2-1.2 1.7-0.3 4.6-0.1 6.5 0.5 1.9 0.6 4.7 2 6.3 3.2 1.5 1.1 3.7 3.9 4.8 6.2 1.6 3.2 2 5.5 1.6 8.8-0.2 2.5-0.7 5.3-1.1 6.2-0.4 1.4 0.4 2.3 3.2 3.8 2 1.2 4.7 3.5 6 5.3 1.2 1.8 2.5 5 2.8 7.2 0.4 2.3 0.1 5.7-0.7 8-0.7 2.2-2.3 5.1-3.4 6.5-1.2 1.4-3.6 3.2-5.4 4-2.2 1-3 2-2.5 3 0.3 0.8 0.9 3.3 1.1 5.5 0.3 2.2 0.1 5.6-0.5 7.5-0.6 1.9-2.9 5.2-5.1 7.2-2.6 2.4-5.5 4-7.8 4.4-2.1 0.4-5.1 0.4-6.8 0.1-1.7-0.3-3.7-0.8-4.5-1.1-1-0.4-2.4 0.9-4.3 3.9-1.9 3.2-4 5.1-11.7 8.5v25c0 21.6 0.2 25 1.5 25 0.8 0 2.3-1.9 3.3-4.3 1-2.3 3.8-7.4 6.3-11.2 2.5-3.8 7.6-10.3 11.5-14.4 3.8-4 9.8-9.5 13.4-12.2 3.6-2.7 10.3-6.9 15-9.3 4.7-2.3 11.8-5.4 15.7-6.7 5.8-1.9 7.5-2.2 8.5-1.2 1 1 1.1 2.1 0.1 5-0.7 2.1-3.6 7.8-6.5 12.7-3.3 5.5-8.8 12.6-14.4 18.5-5.1 5.3-13 12.5-26.4 22.6l21.7 0.3c15.3 0.2 22.2 0.7 23.1 1.5 1 0.9 1.3 7.3 1.2 28.2 0 18.7-0.5 29-1.4 33.5-0.7 3.6-3 9.8-5 13.7-2 4.2-6.1 10-9.5 13.5-3.2 3.5-8.7 8-12.2 10.1-3.5 2.1-9.6 4.8-13.4 6-6.5 2.1-8.8 2.2-35.5 2.2-24.8 0-29.3-0.2-34.5-1.8-3.3-1-8.7-3.3-12-5-3.3-1.8-9.2-6.3-13.1-10.2-5.1-5.1-8.1-9.1-10.8-14.5-2-4.1-4.3-10.6-5.1-14.5-1.1-5.1-1.5-14.1-1.5-33.5 0-19.5 0.3-26.8 1.2-27.8 0.9-0.9 7.4-1.2 49.3-1.3l-4-3.1c-2.2-1.7-7.4-6.5-11.5-10.7-5-5-8.8-10.1-11.3-14.9-2-3.9-3.5-7.9-3.2-8.7 0.3-0.8 1.1-1.5 1.8-1.5 0.6 0 3.7 0.8 6.7 1.8 3 1.1 7.8 3.1 10.5 4.4 2.8 1.4 7.9 4.8 11.4 7.4 3.6 2.7 8.5 7.4 10.9 10.4 2.4 3 5.4 7.6 6.8 10.2 1.3 2.7 3.1 4.8 3.9 4.8 1.3 0 1.5-3.4 1.5-50l-4.7-2.3c-3.3-1.5-5.5-3.5-7.3-6.4-1.8-3-2.9-4-4-3.5-0.8 0.4-4.2 0.7-7.6 0.7-5.2 0-6.6-0.4-9.9-3-2.2-1.7-4.7-4.9-5.8-7.5q-1.9-4.5-1.4-8c0.3-1.9 0.8-4.4 1.2-5.5 0.4-1.6-0.4-2.6-3.7-4.5-2.9-1.7-5.1-4.1-6.5-7-1.3-2.5-2.3-5.6-2.3-7 0-1.4 0.4-4.1 0.9-6 0.6-2 2.6-5 4.9-7 2.1-1.9 4.6-4 5.6-4.5 1.4-0.8 1.6-1.5 0.7-3.8-0.6-1.5-1.1-4.2-1.1-6 0-1.7 1-5.2 2.3-7.6 1.2-2.5 3.8-5.5 5.7-6.8 1.9-1.3 5.1-2.6 7-2.9 1.9-0.4 5.3-0.1 7.5 0.6 3.6 1.1 4.1 1.1 5-0.5 0.5-1 2.1-3.1 3.5-4.8 1.4-1.7 4.3-3.9 6.5-4.8 2.2-1 5.1-1.8 6.5-1.8zm40 124.6c-4.1 3.3-9.6 8.4-12.1 11.4-2.5 3-5.9 7.4-7.6 9.9-1.7 2.5-4 6.4-5.2 8.8l-2.1 4.2c6 0 9.2-1.4 14.3-4.6 3.9-2.6 10.8-7.6 15.1-11.3 4.4-3.6 10.3-9.3 13.1-12.6 2.8-3.3 6.5-8 8.2-10.5 1.7-2.5 3.8-6 4.7-7.7 1.3-2.7 1.3-3.3 0.2-3.3-0.7 0-5.8 2.2-11.2 4.9-5.5 2.7-13.3 7.5-17.4 10.8zm-77 18.2c3.6 3.7 9.7 8.8 13.5 11.3 3.8 2.6 7.6 4.7 8.2 4.8 0.7 0 1.3-0.3 1.3-0.7 0-0.5-1.4-3-3.2-5.7-1.8-2.7-6.1-7.5-9.4-10.5-3.4-3.1-9.1-7.1-12.8-8.8-3.6-1.8-6.9-3.3-7.2-3.3-0.3 0 0.2 1.4 1.3 3.2 1 1.7 4.7 6.1 8.3 9.7zm-34 24.1c0 45 0.4 53.9 1.4 57.5 0.7 2.8 2.6 7.5 4.1 10.5 1.5 3 5.5 8.4 8.9 11.9 3.4 3.4 8.1 7.5 10.6 8.9 2.5 1.5 6.8 3.5 9.5 4.5 4.5 1.8 8 1.9 36 2 22.7 0 32.1-0.3 35-1.3 2.2-0.7 6.3-2.4 9-3.8 2.8-1.4 7.8-5.2 11.3-8.6 3.5-3.4 7.6-8.1 9.2-10.6 1.6-2.5 3.8-7.4 5-11 2-6.1 2.2-8.3 2-33 0-14.6-0.2-26.6-0.3-26.7-0.1-0.1-19.8-0.3-43.7-0.5-23.9-0.2-55.8-0.2-70.8 0z"/>
		<path id="Path 1" class="s1" d="m97.9 49c4.3 0 5.6 0.5 8.1 3 2.1 2.1 3 4 3 6.3 0 1.7-1.2 6-5.5 15.8l-11.5-0.1-2.5-6.5c-1.4-3.6-2.5-7.9-2.4-9.6 0-1.9 1.1-4.1 2.9-6 2.4-2.5 3.6-2.9 7.9-2.9zm-24.4 10.6c1.6 0.4 3.7 1 4.5 1.4 0.8 0.4 3 4.2 8 16l-8 8-7.8-3.3c-7-3-7.8-3.6-9.1-7.2-1.3-3.6-1.3-4.4 0.5-8 1.2-2.5 3.2-4.6 5.4-5.8 2.3-1.1 4.5-1.5 6.5-1.1zm50.7-0.5c0.5-0.1 2.5 0.6 4.5 1.4 2.7 1 4.3 2.5 5.7 5.2 1.2 2.5 1.6 4.9 1.2 6.8-0.3 1.7-1.1 3.8-1.8 4.7-0.7 1-4.5 3.1-15.3 7.7l-4-3.9c-4-4-4-4-2.6-7.7 0.7-2.1 2.3-5.7 3.5-8.1 1.5-3.2 2.9-4.6 5.1-5.2 1.6-0.4 3.3-0.9 3.7-0.9zm-64.7 26.9c1.1 0 5 1.2 15.6 5.5l-0.1 11.5-7.5 3c-6.3 2.5-8 2.8-10.3 1.9-1.5-0.6-3.5-1.8-4.5-2.7-1-0.9-2.2-3.3-2.7-5.2-0.5-2-0.5-4.9 0.1-6.7 0.5-2 2.2-4.1 4.1-5.3 1.8-1.1 4.2-2 5.3-2zm78 0.5c2.2 0.3 4.8 1.3 5.8 2.2 1 1 2.3 3.4 2.9 5.3 0.9 2.9 0.8 4.2-0.8 7.5-1.3 2.7-3.1 4.6-5.7 5.8-3.7 1.7-3.7 1.7-18.8-4.8l0.1-11 6.3-2.7c4.5-2 7.3-2.6 10.2-2.3zm-60.5 23.5c0.8 0 3.2 1.7 8.9 7.5l-3.2 7.4c-2.4 5.7-3.9 7.8-6.2 8.9-1.9 0.9-4.3 1.2-6.8 0.8-2-0.3-4.7-1.7-6-2.9-1.2-1.3-2.5-3.7-2.9-5.3-0.4-1.6-0.3-4.5 0.2-6.4 0.8-3.1 1.7-3.9 7.7-6.7 3.7-1.8 7.5-3.2 8.3-3.3zm41.5 0c0.5 0 4.1 1.2 7.9 2.8 5.9 2.3 7.1 3.2 8.4 6.2 0.8 2 1.1 4.9 0.8 6.8-0.3 1.7-1.7 4.3-3.1 5.7-1.4 1.4-4.2 2.8-6.3 3.1-2.4 0.4-4.8 0.1-6.7-0.8-2.3-1.2-3.8-3.3-9.3-16.3l3.6-3.7c2-2.1 4.1-3.8 4.7-3.8zm-26.4 10.1l11.9-0.1 2.5 6.5c1.4 3.6 2.5 7.8 2.5 9.5 0 1.7-1 4.2-2.3 5.8-1.4 1.5-4 3-6 3.5-2.4 0.4-4.9 0.2-7-0.6-1.7-0.7-4-2.4-5-3.8-0.9-1.3-1.7-3.5-1.7-4.9 0-1.4 1.2-5.5 2.6-9.2z"/>
		<path id="Path 2" class="s2" d="m99.5 81.4c2.8 0.3 6.1 1.3 7.5 2.4 1.4 1 3.5 3.4 4.8 5.3 1.5 2.2 2.2 4.9 2.2 7.6 0 2.4-0.8 5.9-1.8 7.9-0.9 2.1-3 4.6-4.7 5.8-1.7 1.1-5.2 2.2-8 2.4-3.5 0.3-6.1-0.1-8.9-1.4-2.4-1.2-4.8-3.5-6.2-5.9-1.3-2.2-2.4-5.7-2.4-7.8 0-2 0.5-4.9 1.1-6.5 0.6-1.5 1.8-3.8 2.8-5.2 0.9-1.3 3.2-3 5.1-3.7 2-0.8 5.7-1.1 8.5-0.9z"/>
		<path id="Path 3" class="s3" d="m114 201.2c1.9 0 2.8 0.2 2 0.5-0.8 0.2-2.4 0.2-3.5 0-1.1-0.3-0.4-0.5 1.5-0.5zm-16 103.2c11.3 0 15.8 0.2 10 0.3-5.8 0.2-15 0.2-20.5 0-5.5-0.1-0.8-0.3 10.5-0.3z"/>
		<path id="Path 4" class="s4" d="m54.5 208.4c15.4 0 21.9 0.2 14.5 0.3-7.4 0.2-20 0.2-28 0-8-0.1-1.9-0.3 13.5-0.3zm32-0.1c2.2-0.1 3.2 0.1 2.3 0.4-0.9 0.2-2.7 0.2-4 0-1.3-0.2-0.5-0.4 1.7-0.4zm7.5-0.1c1.9 0 2.8 0.2 2 0.5-0.8 0.2-2.4 0.2-3.5 0-1.1-0.3-0.4-0.5 1.5-0.5zm8 0c1.9 0 2.8 0.2 2 0.5-0.8 0.2-2.4 0.2-3.5 0-1.1-0.3-0.4-0.5 1.5-0.5zm9.5 0.1c3.3 0 4.9 0.2 3.5 0.4-1.4 0.2-4.1 0.2-6 0-1.9-0.2-0.8-0.4 2.5-0.4zm32.5 0.1c14 0 19.9 0.2 13 0.3-6.9 0.2-18.3 0.2-25.5 0-7.2-0.1-1.5-0.3 12.5-0.3z"/>
		<path id="Path 5" class="s5" d="m169.7 219c0.2 6.3 0.2 17.1 0 24-0.1 6.9-0.3 1.7-0.3-11.5 0-13.2 0.2-18.8 0.3-12.5z"/>
		<path id="Path 6" class="s6" d="m81.7 95.5c0.2 1.1 0.2 2.7 0 3.5-0.3 0.8-0.5-0.1-0.5-2 0-1.9 0.2-2.6 0.5-1.5z"/>
	</g>
</svg>