<svg version="1.2" xmlns="http://www.w3.org/2000/svg" viewBox="0 0 277 305" width="277" height="305">
	<title>Icon_8</title>
	<style>
		.s0 { fill: #32485e } 
		.s1 { fill: #167e65 } 
		.s2 { opacity: .9;fill: #2b3f52 } 
		.s3 { fill: #197764 } 
		.s4 { fill: #304c5e } 
		.s5 { fill: #1e6e63 } 
		.s6 { fill: #275d61 } 
		.s7 { fill: #226762 } 
		.s8 { fill: #2c545f } 
	</style>
	<g id="Background">
		<path id="Path 0" fill-rule="evenodd" class="s0" d="m85.3 19.2c14.2 0.3 15.6 0.5 21 3.1 3.1 1.5 7.7 4.7 10.2 7.2 2.5 2.5 6 7.5 7.7 11.3 3.2 6.5 3.3 7.1 3.9 37.7l4.7-4.4c2.6-2.5 6.7-5.4 9.2-6.5 3.5-1.6 7.3-2.1 16.5-2.4 9.3-0.3 12.3-0.1 13.1 0.9 0.8 1 0.9 3 0.4 6.4-0.4 2.7-1.7 6.9-2.9 9.2-1.1 2.4-3.9 6.1-6.1 8.3-2.2 2.2-5.8 4.9-8 6-2.2 1.1-6.8 2.4-10.2 3-3.5 0.5-8.7 1-16.8 1v61l5.3-4.8c3.4-3 7.2-5.3 10.7-6.5 4-1.2 8.7-1.7 16.8-1.7 8.1 0 11.3 0.3 11.6 1.2 0.2 0.7 0 3.3-0.4 5.8-0.4 2.5-1.5 6.2-2.4 8.2-0.9 2.1-3.5 5.9-5.8 8.4-2.4 2.6-6.5 5.8-9.3 7.2-4.3 2.2-6.5 2.6-26.5 3.2v43.5l6.7 2c3.8 1 9.3 3.1 12.3 4.6 3 1.5 7.1 3.8 12.5 7.6l4.5-2c2.5-1.1 6.8-2.6 9.5-3.3 2.8-0.8 6.2-1.4 10.5-1.4v-85.5c0-53.5 0.4-87.3 1-90.3 0.6-2.6 2.5-7.2 4.3-10.2 1.8-3 5.4-7.1 8.2-9.2 2.8-2.1 7-4.5 9.5-5.3 2.5-0.9 9.2-1.8 15-2.2 8.1-0.5 11.1-0.3 12.9 0.8 2.1 1.2 2.4 1.9 1.9 5.9-0.2 2.5-1.6 7-2.9 10-1.4 3-4.5 7.5-6.9 10-2.5 2.4-7 5.5-10 6.9-4.3 1.9-7.8 2.6-27 3.6v50l2.7-2.7c1.6-1.5 4.6-3.4 6.8-4.3 2.2-0.9 7.7-2 12.1-2.3 6.5-0.6 8.5-0.4 9.8 0.8 0.9 0.8 1.7 2.4 1.7 3.5-0.1 1.1-0.7 4-1.6 6.5-0.8 2.5-3 6.2-5 8.2-1.9 2.1-5.3 4.7-7.5 5.8-2.2 1.1-7.4 2.3-19 3.5v35l2.7-2.6c1.6-1.5 4.4-3.5 6.3-4.4 2.1-1.1 7-2 12.1-2.4 6.9-0.5 9-0.3 10.3 0.9 0.9 0.8 1.7 2.4 1.6 3.5 0 1.1-0.6 3.8-1.3 5.9-0.6 2.2-3 6-5.2 8.4-2.2 2.5-5.8 5.4-8 6.3-2.7 1.2-6.4 1.9-18.5 1.9v43l4.8 0.5c2.6 0.3 7.3 1.2 10.5 2 3.1 0.8 8.3 2.8 11.5 4.4 3.1 1.5 8.3 5.1 17.2 13.1h13c10.7 0 13.1 0.3 13.5 1.5 0.3 0.8 0.5 1.9 0.5 2.5 0 0.7-41 1-242 1l0.3-2.3c0.2-2.1 0.6-2.2 26.2-2.8l7.5-7.2c5.3-5 10.2-8.5 16-11.5 4.7-2.3 11.7-5.2 15.5-6.3 5.4-1.6 10.6-2.2 37.5-2.9v-78.5l-9.2-0.7c-5.1-0.4-11.3-1.4-13.8-2.2-2.5-0.9-6.9-3.7-9.9-6.3-2.9-2.6-6.5-7.1-7.9-9.8-1.7-3.4-2.5-6.8-2.7-16h12.5c11.4 0 13 0.2 18 2.6 3 1.5 7.2 4.4 13.1 10.4l-0.1-64.5h-7.7c-4.3 0-10.5-0.5-13.8-1.1-3.3-0.6-8.2-2.3-11-3.7-2.7-1.4-7-4.6-9.5-7.1-2.5-2.5-5.6-6.9-6.9-9.6-1.3-2.8-2.8-7.3-3.3-10-0.6-2.8-0.8-5.8-0.4-6.8 0.6-1.7 1.9-1.8 15.9-1.5zm0.7 213.9c-4.1 1.1-10.9 3.8-15 6-4.1 2.1-9.5 5.7-12 7.8l-4.5 4 109 0.1c-7-6.1-12.4-9.7-16.5-11.9-4.1-2.2-10.9-4.9-15-6.1-5.4-1.6-11.1-2.2-20.5-2.5-7.1-0.2-14.1-0.1-15.5 0.1-1.4 0.3-5.9 1.4-10 2.5zm84.8 8.5c-2.6 0.9-4.7 1.9-4.8 2.2 0 0.4 1.4 2.2 3.2 3.9l3.3 3.3 52-0.5c-7.8-5-12.7-7.4-16-8.7-4.7-1.7-8.6-2.2-17.5-2.4-6.3-0.2-12.4 0-13.5 0.2-1.1 0.3-4.1 1.2-6.7 2z"/>
		<path id="Path 1" class="s1" d="m87.9 25.2c10 0.3 12.3 0.7 16.6 3 2.7 1.4 6.9 4.7 9.3 7.4 2.3 2.7 4.9 6.9 5.7 9.4 0.9 2.5 1.5 5.1 1.5 5.8 0 0.9-2.7 1.2-10.3 1.2-7.2 0-11.7-0.5-15.2-1.7-3.3-1.2-6.9-3.6-10.6-7.3-3.9-3.8-6.1-7-7.2-10.5-1-2.8-1.7-5.6-1.6-6.4 0.1-1 2.5-1.2 11.8-0.9zm143.1 11.8l-1.3 4.3c-0.7 2.3-2.2 5.6-3.4 7.2-1.2 1.6-3.2 4-4.5 5.2-1.2 1.2-4.5 3.2-7.3 4.4-3.4 1.5-7.9 2.4-14.3 2.8-8.7 0.6-9.2 0.5-9.2-1.4 0-1.1 1-4 2.1-6.5 1.1-2.5 3.5-6 5.2-7.8 1.8-1.9 4.5-4.1 6-4.9 1.5-0.9 4-1.9 5.5-2.4 1.5-0.4 6.9-0.8 21.2-0.9zm-72.2 34c5.1 0 7.2 0.4 7.2 1.2 0 0.7-1.1 3.5-2.4 6.3-1.3 2.7-3.6 6.2-5.2 7.7-1.6 1.5-4.9 3.6-7.4 4.7-3.4 1.6-6.6 2.1-13.2 2.1-8.6 0-8.8 0-8.2-2.3 0.3-1.2 1.6-4.2 2.7-6.6 1.2-2.5 3.8-5.6 5.6-7 1.9-1.4 5.8-3.4 8.5-4.3 2.9-1 8.2-1.7 12.4-1.8zm51 44c3.5 0 6.2 0.4 6.2 1 0 0.5-0.7 2.3-1.5 4-0.8 1.7-3.2 4.2-5.2 5.7-3.1 2.4-4.8 2.8-11 3-7.1 0.3-7.3 0.3-6.7-2 0.4-1.2 1.5-3.4 2.6-5 1-1.5 3.6-3.6 5.6-4.7q3.7-1.9 10-2zm-125.7 0.7l9.2 0.6c5.1 0.2 10.8 1.2 12.7 2 1.9 0.8 5 2.8 6.9 4.3 1.9 1.6 4.5 5.1 5.8 7.9 1.2 2.7 2.3 5.6 2.3 6.2 0 0.9-2.2 1.3-7.7 1.3-4.3 0-9.5-0.5-11.5-1-2.1-0.6-5.7-2.5-8-4.3-2.3-1.7-5.2-5.2-6.4-7.7-1.2-2.5-2.5-5.6-2.8-6.9zm73.7 38.4c5.9-0.1 8.2 0.2 8.2 1.1 0 0.7-1 3.5-2.3 6.3-1.3 2.7-4.1 6.5-6.2 8.3-2.2 1.8-6.2 3.9-9 4.7-2.7 0.8-8.2 1.5-19.5 1.5l0.6-2.8c0.4-1.5 1.7-4.6 3-7 1.3-2.3 3.9-5.3 5.7-6.7 1.8-1.3 5-3.1 7.2-3.9 2.3-0.8 7.6-1.5 12.3-1.5zm52 14.9c4.3 0 6.2 0.4 6.2 1.2 0.1 0.7-1 2.9-2.2 4.8-1.3 1.9-4.3 4.5-6.8 5.8-3.1 1.5-6.2 2.2-10.2 2.2-5.5 0-5.7-0.1-5.2-2.3 0.4-1.2 1.7-3.6 2.9-5.2 1.2-1.7 3.7-3.8 5.6-4.7 2.1-1.1 5.8-1.8 9.7-1.8z"/>
		<path id="Path 2" class="s2" d="m109 251.5c30 0 42.1 0.1 27 0.2-15.1 0.2-39.7 0.2-54.5 0-14.8-0.1-2.5-0.2 27.5-0.2zm89-0.1c14.6 0 20.4 0.2 13 0.3-7.4 0.2-19.3 0.2-26.5 0-7.2-0.1-1.1-0.3 13.5-0.3z"/>
		<path id="Path 3" class="s3" d="m113.5 52.3c4.4 0 6.4 0.2 4.5 0.4-1.9 0.2-5.5 0.2-8 0-2.5-0.2-0.9-0.4 3.5-0.4zm98 116c2.8 0 4.1 0.2 2.9 0.4-1.1 0.2-3.4 0.2-5 0-1.6-0.2-0.7-0.4 2.1-0.4z"/>
		<path id="Path 4" class="s4" d="m197 61.3c4.1 0 5.7 0.2 3.5 0.4-2.2 0.2-5.6 0.2-7.5 0-1.9-0.2-0.1-0.4 4-0.4z"/>
		<path id="Path 5" class="s5" d="m224 36.3c4.1 0 5.7 0.2 3.5 0.4-2.2 0.2-5.6 0.2-7.5 0-1.9-0.2-0.1-0.4 4-0.4zm-89 57c3.6 0 4.9 0.2 3 0.4-1.9 0.2-4.8 0.2-6.5 0-1.7-0.2-0.1-0.4 3.5-0.4zm76.5 21c2.8 0 4.1 0.2 2.9 0.4-1.1 0.2-3.4 0.2-5 0-1.6-0.2-0.7-0.4 2.1-0.4zm-15.5 15c3 0 4.2 0.2 2.5 0.4-1.7 0.2-4.1 0.2-5.5 0-1.4-0.2 0-0.4 3-0.4zm-81 9c3.6 0 4.9 0.2 3 0.4-1.9 0.2-4.8 0.2-6.5 0-1.7-0.2-0.1-0.4 3.5-0.4z"/>
		<path id="Path 6" class="s6" d="m159 153.3c4.1 0 5.7 0.2 3.5 0.4-2.2 0.2-5.6 0.2-7.5 0-1.9-0.2-0.1-0.4 4-0.4zm-23.5 23c3.8 0 5.2 0.2 3 0.4-2.2 0.2-5.3 0.2-7 0-1.7-0.2 0.2-0.4 4-0.4z"/>
		<path id="Path 7" class="s7" d="m84.5 24.4c5.5 0 8 0.1 5.5 0.3-2.5 0.2-7 0.2-10 0-3-0.2-1-0.3 4.5-0.3zm111.5 158.9c3 0 4.2 0.2 2.5 0.4-1.7 0.2-4.1 0.2-5.5 0-1.4-0.2 0-0.4 3-0.4z"/>
		<path id="Path 8" class="s8" d="m160 70.3c3.6 0 4.9 0.2 3 0.4-1.9 0.2-4.8 0.2-6.5 0-1.7-0.2-0.1-0.4 3.5-0.4zm-70 45c3.6 0 4.9 0.2 3 0.4-1.9 0.2-4.8 0.2-6.5 0-1.7-0.2-0.1-0.4 3.5-0.4z"/>
	</g>
</svg>