<svg version="1.2" xmlns="http://www.w3.org/2000/svg" viewBox="0 0 195 364" width="195" height="364">
	<title>Icon_5</title>
	<style>
		.s0 { fill: #32485e } 
		.s1 { fill: #8ea7d6 } 
		.s2 { opacity: .1;fill: #010101 } 
		.s3 { opacity: .9;fill: #293e50 } 
		.s4 { fill: #6c84aa } 
		.s5 { fill: #5a7192 } 
		.s6 { fill: #374d65 } 
		.s7 { fill: #7b93bd } 
	</style>
	<g id="Background">
		<path id="Path 0" fill-rule="evenodd" class="s0" d="m94.4 20.2c0.6 0.2 2.8 3.7 4.8 7.8 2 4.1 4.8 11.5 6.3 16.5 1.4 5 3 12.6 3.5 17 0.5 4.6 0.6 10.6 0.1 14-0.4 3.3-1.9 8.5-3.3 11.5-1.4 3-3.9 7-5.6 8.8-3.1 3-3.2 3.6-3.2 19.2l26-17.5c14.3-9.6 26.7-17.5 27.5-17.5 0.8 0 1.7 0.6 1.9 1.3 0.3 0.6-0.2 4.4-1 8.2-0.8 3.8-2.8 9.8-4.4 13.3-1.7 3.4-5.1 8.5-7.8 11.3-2.6 2.8-7.2 6.3-10.2 7.7-5.1 2.5-6.4 2.7-32 2.7v18.3c0 10 0.2 18.2 0.5 18.2 0.3 0 11.6-7.5 25.2-16.7 13.7-9.2 25.7-16.9 26.8-17.1 1.1-0.2 2.3 0.2 2.7 0.9 0.3 0.8 0 4.6-0.8 8.4-0.8 3.8-2.7 9.7-4.2 13-1.5 3.3-4.8 8.2-7.2 10.8-2.8 3-7 6.1-11 8-5 2.4-8.2 3.2-14 3.5-4.1 0.2-9.9 0-18-1.3v22.5h16.5c16 0 16.5 0.1 18 2.2 0.8 1.3 2.6 5.2 4 8.8 1.4 3.6 3.7 10.6 4.9 15.5 1.3 4.9 3 12.6 3.7 17 0.8 4.8 1.3 15.8 1.3 27.5 0 13.4-0.5 22.5-1.7 29-0.9 5.2-2.8 13.6-4.2 18.5-1.5 4.9-3.9 11.9-8.1 22l-73.9 0.6-2.6-5.8c-1.5-3.2-3.6-8.7-4.8-12.3-1.1-3.6-3-10.6-4-15.5-1.1-4.9-2.5-15.1-3.2-22.5-0.9-10.2-0.9-16.9 0-27.5 0.6-7.7 2-18.1 3-23 1.1-4.9 3.1-12.6 4.6-17 1.4-4.4 3.6-10 7-17l33.5-0.5v-23l-4.3 1.1c-2.3 0.6-8 0.9-12.7 0.6-5.8-0.3-10.1-1.1-13.5-2.6-2.8-1.3-6.8-3.7-8.9-5.4-2.2-1.8-5.4-5.5-7.3-8.2-1.8-2.8-4.5-8.5-5.8-12.8-1.4-4.2-2.5-9.5-2.5-11.7 0-2.3 0.5-4.2 1.2-4.4 0.7-0.2 12.9 7.4 27 17 14.2 9.6 26 17.4 26.3 17.4 0.3 0 0.5-8.2 0.5-36.5h-12.8c-12.2 0-13-0.1-19.2-3.1-4-2-8.2-5-10.9-8-2.4-2.7-5.5-7.4-6.9-10.4-1.4-3-3.1-7.7-3.9-10.5-0.7-2.7-1.3-6.7-1.3-8.7 0-3.4 0.3-3.8 2.2-3.5 1.3 0.2 13.4 7.8 27 17 13.7 9.2 25 16.7 25.3 16.7 0.3 0 0.5-3.4 0.5-7.5 0-7.3-0.1-7.6-4.1-12.2-2.6-3.2-4.7-7-6-11.3-1.2-4.1-1.9-9.4-1.9-14.2 0-4.3 0.7-11.3 1.6-15.5 0.9-4.3 3.3-12.5 5.5-18.3 2.2-5.8 4.7-11.5 5.5-12.8 0.9-1.3 2.1-2.2 2.8-2zm-6.7 29.3c-1.5 5.8-2.1 11-2.1 19-0.1 9.2 0.3 11.8 2.1 16 1.3 2.8 3.2 5.9 4.4 7l2.1 2c4.6-5.4 6.5-9.2 7.3-12 0.9-2.7 1.5-8.5 1.5-12.7 0-4.3-0.5-10.2-1.1-13-0.6-2.9-2.3-9.5-3.9-14.5-1.6-5.1-3.1-9.3-3.4-9.3-0.4 0-1.6 2.1-2.7 4.8-1.1 2.6-3 8.3-4.2 12.7zm-40.8 51c1.5 3.3 4.1 7.5 5.7 9.3 1.6 1.9 5.4 4.6 8.4 6 4.1 1.9 7.8 2.7 14.3 3.1 6.6 0.5 8.7 0.3 8.7-0.6 0-0.7-8.7-7.1-19.3-14.1-10.5-7.1-19.8-13.2-20.5-13.7-0.9-0.5-1-0.1-0.6 1.6 0.3 1.3 1.8 5.1 3.3 8.4zm57.3 17.5c-0.1 0.6 2.8 1 6.5 1 3.8 0 9-0.6 11.8-1.4 2.7-0.8 6.9-2.9 9.2-4.5 2.4-1.7 5.7-5.2 7.3-7.9 1.7-2.6 3.6-6.9 4.3-9.5 0.8-2.7 1.3-5 1.2-5.2-0.1-0.2-9.1 5.7-20.1 13.1-10.9 7.4-20 13.9-20.2 14.4zm-57.6 29c1.4 3 3.8 7 5.3 8.8 1.4 1.9 5.3 4.7 8.6 6.3 4.1 2 8.2 3.1 13 3.5 3.8 0.3 7.9 0.2 9.1-0.3 1.8-0.7-0.8-2.8-18.2-14.6-17.9-12.1-20.3-13.5-20.3-11.5-0.1 1.3 1.1 4.8 2.5 7.8zm58.4 18.1c0.8 0.5 3.9 0.9 6.8 0.9 2.8 0 7.8-0.8 11-1.8 3.1-1 7.2-2.9 9.1-4.2 1.9-1.4 4.8-4.5 6.5-7 1.6-2.5 3.7-6.9 4.6-9.9 0.9-2.9 1.5-5.5 1.5-5.7-0.1-0.2-9.3 5.8-20.6 13.2-15.2 10.2-20 13.9-18.9 14.5zm-45.1 37.6c-0.6 1.6-2 5.2-3 8l-1.9 5.3h78c-0.9-3.5-2.2-7-3.4-10l-2.1-5.5-66.5-0.5z"/>
		<path id="Path 1" class="s1" d="m52.2 223h41.9c32.6 0 42 0.3 42.3 1.3 0.2 0.6 1.2 6.1 2.1 12.2 1.4 8.9 1.6 15.1 1.2 32.5-0.4 18.3-0.9 23.1-3 32-1.4 5.8-3.8 14.1-8.4 26.5l-68.3 0.5-2.4-6.2c-1.3-3.5-3.3-9.9-4.4-14.3-1.2-4.4-2.8-12.3-3.6-17.5-0.9-6.2-1.3-16.3-1.1-29 0.2-13.2 0.8-22.5 2-28.8z"/>
		<path id="Path 2" class="s2" d="m77 199.4c9.1 0 12.9 0.2 8.5 0.3-4.4 0.2-11.8 0.2-16.5 0-4.7-0.1-1.1-0.3 8-0.3zm34 0c9.1 0 12.9 0.2 8.5 0.3-4.4 0.2-11.8 0.2-16.5 0-4.7-0.1-1.1-0.3 8-0.3z"/>
		<path id="Path 3" class="s3" d="m94 216.5c21.7 0 30.5 0.1 19.5 0.2-11 0.2-28.8 0.2-39.5 0-10.7-0.1-1.7-0.2 20-0.2z"/>
		<path id="Path 4" class="s4" d="m94 222.5c22.8 0 32.3 0.1 21 0.2-11.3 0.2-29.9 0.2-41.5 0-11.6-0.1-2.3-0.2 20.5-0.2z"/>
		<path id="Path 5" class="s5" d="m94 328.4c18.4 0 26.1 0.2 17 0.3-9.1 0.2-24.2 0.2-33.5 0-9.3-0.1-1.9-0.3 16.5-0.3z"/>
		<path id="Path 6" class="s6" d="m140.7 260.5c0.2 1.6 0.2 4.6 0 6.5-0.2 1.9-0.4 0.6-0.4-3 0-3.6 0.2-5.1 0.4-3.5z"/>
		<path id="Path 7" class="s7" d="m48.7 259c0.2 1.9 0.2 5.5 0 8-0.2 2.5-0.4 0.9-0.4-3.5 0-4.4 0.2-6.4 0.4-4.5z"/>
	</g>
</svg>