<svg version="1.2" xmlns="http://www.w3.org/2000/svg" viewBox="0 0 206 365" width="206" height="365">
	<title>Icon_2</title>
	<style>
		.s0 { fill: #32485e } 
		.s1 { fill: #f15a37 } 
		.s2 { fill: #97c0a7 } 
		.s3 { opacity: .7;fill: #151f29 } 
		.s4 { opacity: .9;fill: #29394c } 
	</style>
	<g id="Background">
		<path id="Path 0" fill-rule="evenodd" class="s0" d="m103 21c1.4 0 4.5 1 7 2.2 2.5 1.3 5.4 3.7 6.5 5.3 1.9 3 2.2 3.1 8 2.7 5-0.3 6.5 0 9.4 2 1.9 1.2 4.4 3.6 5.5 5.1 1.7 2.3 2.1 4.2 2 9.5-0.1 6.3 0.1 6.8 2.8 8.4 1.5 1 3.7 3.3 4.8 5 1.3 2.2 2 5.1 2 8.3 0 3.2-0.7 6.1-2 8.3-1.1 1.7-3.3 4-4.8 4.9-2.7 1.7-2.9 2.2-2.8 8.5 0.1 5.3-0.3 7.2-2 9.5-1.1 1.5-3.6 3.9-5.5 5.1-2.9 2-4.3 2.3-9.4 1.9-5.8-0.4-6.1-0.3-8 2.7-1.1 1.7-3.9 4-10.4 7.1l-0.1 55 5.5-5.5c4.7-4.7 5.9-6.8 8.6-14.5 1.7-4.9 5-12.8 7.2-17.4 2.7-5.4 6.2-10.6 9.7-14.2 3.6-3.7 6.9-6.2 9.5-7 3.2-1 4.9-1 8.5 0.1 2.7 0.7 6 2.7 8.1 4.9 2 2 4.2 5.4 4.9 7.6 1.1 3.2 1.1 4.9 0.1 8.5-0.9 3.3-2.8 6-7 10-3.6 3.4-8.9 7.1-14.2 9.7-4.6 2.3-12.5 5.6-17.4 7.3-8.2 2.8-9.6 3.7-23.5 17.5v18.5h24.5c18.6 0 24.6 0.3 25.1 1.2 0.3 0.7-1.9 8-5.1 16.3-5.3 14.1-5.5 15.1-3.8 16.3 1 0.6 4 2.9 6.6 5 2.6 2 7.3 6.9 10.4 10.7 3 3.8 7 9.9 8.8 13.5 1.8 3.6 4.3 9.6 5.5 13.5 1.4 4.4 2.4 10.9 2.7 17.5 0.4 6.6 0.1 13.1-0.7 17.5-0.7 3.9-2.6 10.6-4.3 15-1.7 4.4-5.2 11.3-12.7 22.5h-119l-3.1-3.8c-1.6-2-5-7.8-7.5-12.7-2.4-4.9-5.2-11.9-6.1-15.5q-1.7-6.5-1.7-18.5c0-8.6 0.5-14 1.8-19 1-3.9 3.2-9.9 4.8-13.5 1.6-3.6 4.9-9.2 7.3-12.5 2.3-3.3 6.9-8.5 10.1-11.5 3.3-3.1 7.2-6.5 11.9-9.8l-5.8-14.8c-4.6-12-5.5-15.2-4.5-16.2 1-1 6.9-1.3 48.8-1.2l-0.1-80.5-4.1-2c-2.3-1.1-5-3.3-6-5-1.7-2.9-2-3-8-2.7-5 0.2-7-0.2-9.6-1.8-1.7-1.1-4.1-3.5-5.2-5.3-1.1-1.7-2.3-4.5-2.6-6.2-0.4-1.7-0.1-4.5 0.5-6.3 1.1-3.1 1-3.3-2.4-5.2-2-1.1-4.4-3.7-5.5-6-1.1-2.2-2-5.7-2-7.8 0-2 0.8-5.3 1.8-7.2 1.1-1.9 3.4-4.5 5.3-5.8 3.1-2.1 3.3-2.6 2.5-5.5-0.6-2.1-0.5-4.7 0.2-7.5 0.7-2.3 2.3-5.4 3.5-7 1.3-1.5 3.9-3.3 5.8-4.1 2.1-0.9 5.3-1.2 8.4-0.9 4.8 0.5 5.1 0.3 7.4-2.9 1.4-1.9 4.3-4.3 6.5-5.4 2.3-1 5.2-1.9 6.6-1.9zm41 101c-1.4 0.9-4.3 4.4-6.5 7.6-2.1 3.2-5.4 9.3-7.1 13.4-1.8 4.1-3.6 8.8-4.1 10.4-0.8 2.9-0.7 3 2.2 2.2 1.7-0.4 6.4-2.2 10.5-4 4.1-1.7 10.2-5 13.4-7.1 3.2-2.2 6.8-5.4 7.9-7 1.1-1.7 2-4.4 2-6 0-1.7-0.7-4.4-1.5-6-0.9-1.7-2.8-3.5-4.4-4.2-1.6-0.6-3.6-1.3-4.5-1.5-1-0.2-2.5-0.2-3.5 0-1.1 0.2-3 1.2-4.4 2.2zm-83.4 88.7c1.4 3.8 3.4 9.2 4.5 12l1.9 5.3 72.3-0.5c6-15.5 7.9-20.8 8.2-21.8 0.5-1.6-2.1-1.7-44.5-1.7h-45zm0.2 26.8c-2.4 1.7-7.4 6.5-11.3 10.6-4.7 5.1-8.3 10.1-11.2 15.9-2.3 4.6-4.9 11.6-5.8 15.4-1 4-1.7 11.5-1.7 17 0 6.3 0.6 12.5 1.6 16.5 0.9 3.6 3.3 9.9 5.2 14 2 4.2 4.7 9 6 10.8l2.4 3.2 114.5 0.1c5.4-8.2 7.9-12.8 9.2-15.6 1.2-2.7 3-7.9 3.9-11.5 1.2-4.4 1.7-10.3 1.7-18.5-0.1-9.3-0.6-13.5-2.3-19-1.2-3.8-3.7-9.9-5.5-13.5-1.9-3.5-5.8-9.4-8.8-13-2.9-3.5-7.8-8.4-10.7-10.7l-5.5-4.2-77.5-0.6z"/>
		<path id="Path 1" class="s1" d="m104 27.4c0.8 0.3 2.5 0.7 3.8 1 1.2 0.3 2.9 2.1 3.8 3.9 1.5 3.1 1.5 3.5-1.8 11.5-3.3 8.3-3.3 8.3-6.7 8-3.2-0.3-3.6-0.7-6.8-8-2.9-6.9-3.2-8.1-2-10.5 0.6-1.6 2.8-3.6 4.7-4.5 1.9-1 4.1-1.6 5-1.4zm-23.8 9.6c1.6 0 3.6 0.4 4.6 0.9 0.9 0.4 3.3 4.5 8.7 17.1l-4.6 4.5-8.2-3.3c-4.5-1.9-8.5-3.9-8.9-4.5-0.4-0.7-0.8-3-0.8-5.2 0.1-2.2 0.6-4.7 1.3-5.6 0.7-0.8 2.1-2.1 3.2-2.7 1.1-0.6 3.2-1.2 4.8-1.2zm44.9 0c1.6 0 3.9 0.5 5.3 1 1.4 0.6 3.2 2.6 4.1 4.8 1.1 2.6 1.3 4.6 0.7 6.6-0.7 2.5-2.1 3.6-17.8 10.4l-4.6-4.3 3.2-8c1.8-4.4 3.9-8.6 4.8-9.3 0.8-0.6 2.8-1.2 4.3-1.2zm-56.5 23c1.3 0 5.7 1.5 9.8 3.3 7.2 3.1 7.6 3.3 7.5 6.5 0 3.1-0.3 3.3-7.7 6.2-4.3 1.7-8.6 3-9.5 3-1 0-3-1.1-4.5-2.4-2.3-2-2.8-3.3-2.8-6.9 0-3.4 0.6-5.2 2.4-7.1 1.3-1.4 3.5-2.6 4.8-2.6zm68 0.1c1.3-0.1 3 0.2 3.9 0.7 0.9 0.4 2.3 1.9 3 3.5 0.8 1.5 1.4 3.8 1.4 5.2 0 1.4-0.5 3.5-1.2 4.8-0.6 1.2-1.8 2.7-2.7 3.4-0.9 0.7-2.5 1.2-3.6 1.3-1.1 0-5.5-1.5-9.8-3.3-7.2-3-7.7-3.4-7.9-6.3-0.2-3 0-3.3 7.2-6.2 4.1-1.7 8.5-3.1 9.8-3.1zm-48.3 19.1l5 4.7-3.3 7.8c-1.9 4.3-4.1 8.4-5 9.1-0.9 0.7-2.9 1.2-4.4 1.2-1.6 0-3.8-0.5-5-1.2-1.3-0.6-2.8-1.8-3.5-2.7-0.7-0.9-1.2-3.4-1.3-5.6 0-2.2 0.6-4.5 1.3-5.2 0.6-0.7 4.6-2.7 8.7-4.6zm28.5 0l8.2 3.2c6.5 2.6 8.6 3.9 9.7 6.2 1.1 2.2 1.1 3.6 0.2 6.6-0.7 2.5-2.1 4.2-4.1 5.2-1.6 0.9-4.2 1.5-5.7 1.6-1.6 0-3.5-0.6-4.4-1.3-0.8-0.7-3-4.9-8-17.3l2-2.1zm-13.6 7.8c3 0 3.3 0.3 6.4 8 1.8 4.4 3 8.9 2.8 10-0.3 1.1-1.5 2.9-2.8 4-1.4 1.3-3.6 2-6.2 2-2.2 0-5-0.7-6.3-1.5-1.2-0.8-2.7-2.6-3.2-4-0.8-2-0.5-3.8 1.6-8.8 1.4-3.4 3-7 3.5-8 0.6-1.1 2.1-1.7 4.2-1.7z"/>
		<path id="Path 2" class="s2" d="m102.5 59c0.5 0 2.5 0.4 4.3 1 2 0.6 3.8 2.1 4.7 4 0.8 1.7 1.5 4.1 1.5 5.5 0 1.4-0.5 3.5-1 4.8-0.6 1.2-2 2.7-3.3 3.4-1.2 0.6-3 1.4-4 1.7-0.9 0.3-3.2 0-5-0.7-1.7-0.7-4-2.4-5-3.8-0.9-1.3-1.7-3.7-1.7-5.4-0.1-1.7 0.9-4.3 2-5.8 1.2-1.6 3.1-3.3 4.3-3.7 1.2-0.5 2.7-0.9 3.2-1z"/>
		<path id="Path 3" class="s3" d="m103 228.5c20.1 0 28.2 0.1 18 0.2-10.2 0.2-26.6 0.2-36.5 0-9.9-0.1-1.6-0.2 18.5-0.2zm0 6c20.6 0 28.9 0.1 18.5 0.2-10.5 0.2-27.3 0.2-37.5 0-10.2-0.1-1.6-0.2 19-0.2zm72.7 59.5c0.2 0.8 0.2 2.6 0 4-0.3 1.5-0.4 0.9-0.4-1.5-0.1-2.2 0.1-3.3 0.4-2.5z"/>
		<path id="Path 4" class="s4" d="m103 341.5c31.6 0 44.4 0.1 28.5 0.2-16 0.2-41.8 0.2-57.5 0-15.7-0.1-2.6-0.2 29-0.2z"/>
	</g>
</svg>