<svg version="1.2" xmlns="http://www.w3.org/2000/svg" viewBox="0 0 260 322" width="260" height="322">
	<title>Icon_4</title>
	<style>
		.s0 { fill: #32485e } 
		.s1 { fill: #97c0a7 } 
		.s2 { opacity: .8;fill: #212f3e } 
		.s3 { opacity: .2;fill: #020303 } 
		.s4 { opacity: 1;fill: #2c4256 } 
		.s5 { fill: #638281 } 
		.s6 { opacity: .8;fill: #637c6c } 
	</style>
	<g id="Background">
		<path id="Path 0" fill-rule="evenodd" class="s0" d="m130.1 20c0.5 0 2.5 2.1 4.4 4.8 1.9 2.6 6.1 9.4 9.4 15.2 3.2 5.8 7.7 14.8 9.9 20 2.2 5.2 5.1 13.1 6.3 17.5 1.2 4.4 2.4 8.1 2.6 8.3 0.2 0.1 3.6-2.4 7.6-5.6 3.9-3.1 9.9-7.4 13.2-9.4 3.3-2 8.5-4.8 11.5-6.4 3.2-1.6 6.2-2.4 7.3-2 1.4 0.5 1.7 1.8 1.7 7.6 0 3.8-0.9 12.1-1.9 18.3-1.1 6.1-3.3 15.4-8.1 29.7h10.8c5.9 0 13.9 0.5 17.7 1 3.8 0.6 7.8 1.3 8.8 1.5 0.9 0.3 1.7 1.3 1.7 2.3 0 0.9-1.9 4.2-4.2 7.2-2.3 3-6.7 8.2-9.7 11.4-3.1 3.2-8.9 8.5-20.1 17.6l23.5 0.5v51c0 45.4-0.2 51.5-1.7 56-0.9 2.7-3.7 7.7-6.1 11-2.4 3.4-6.7 7.6-9.7 9.6-3 2-7.7 4.5-10.5 5.5-4.6 1.8-9.2 1.9-60.5 2.2-38.2 0.2-57.5 0-62-0.8-3.6-0.7-9-2.3-12-3.8-3-1.4-7.8-4.9-10.6-7.6-2.8-2.8-6.2-7.4-7.6-10.1-1.4-2.8-3.1-7.5-3.7-10.5-0.9-3.9-1.1-19.6-0.6-102.5l23.5-0.5-4.7-3.6c-2.7-2-7.7-6.4-11.2-9.8-3.5-3.3-9-9.4-12.2-13.4-3.3-3.9-5.9-8.1-5.9-9.2 0-1.1 0.8-2.2 1.8-2.5 0.9-0.2 4.9-0.9 8.7-1.5 3.9-0.5 11.7-1 28-1.1l-2.8-8.7c-1.6-4.8-3.7-13.8-4.8-20-1-6.1-1.9-14.8-1.9-19.2 0-7.3 0.2-8 2-8 1.1 0 4.4 1.2 7.3 2.6 2.8 1.5 8.4 4.7 12.2 7.2 3.8 2.4 9.8 6.6 13.3 9.3 3.4 2.7 6.4 4.9 6.7 4.9 0.3 0 0.5-0.7 0.5-1.5 0-0.8 1.4-5.9 3.1-11.3 1.7-5.3 5.7-15.1 8.9-21.7 3.2-6.6 8.1-15.6 11-20 2.9-4.4 5.9-8.8 6.8-9.8 0.8-0.9 1.9-1.7 2.3-1.7zm-87.1 145v18.5c5 2.3 7.3 4.3 8.4 5.8 1.4 2 2.1 4.4 2.1 7.7 0 3.3-0.7 5.7-2.1 7.7-1.1 1.5-3.4 3.5-5.2 4.3l-3.2 1.5c-0.2 34.9-0.2 46.6-0.1 48.5 0.2 1.9 1.3 5.9 2.7 8.7 1.3 2.9 4.5 7.6 7.1 10.4 2.7 2.8 7 6.2 9.8 7.5l5 2.5 124 0.1c7.7-3.6 12.5-7.1 15.5-10.1 3.9-3.9 6.3-7.4 7.8-11.4 2.1-5.3 2.2-7.3 2.2-31v-25.2c-5-2.3-7.3-4.3-8.4-5.8-1.4-2-2.1-4.4-2.1-7.7 0-3.3 0.7-5.7 2.1-7.7 1.1-1.5 3.4-3.5 5.2-4.3l3.2-1.5v-18.5c-19.8-0.1-52.9-0.2-86.5-0.3-33.5-0.1-67-0.1-74.3 0zm0 39.5c3.4-3.2 4.1-5.2 4.1-7.5 0-2.2-0.7-4.2-2.1-5.5l-2-2zm169.9-7.1c0.1 2 0.9 4.4 1.9 5.3 1.7 1.6 1.8 1.5 2.1-1.7 0.1-1.9 0.1-5.2-0.1-7.4-0.3-3.9-0.3-3.9-2.2-1.9-1.3 1.3-1.8 3.3-1.7 5.7z"/>
		<path id="Path 1" class="s1" d="m130.1 30c0.5 0 3.1 3.7 5.8 8.3 2.7 4.5 6.1 10.7 7.6 13.7 1.5 3 4.3 9.3 6.1 14 1.8 4.7 4.2 11.8 7.4 23h-54l0.6-2.8c0.4-1.5 2-6.7 3.6-11.7 1.6-5 5.1-13.7 7.9-19.5 2.8-5.8 7-13.8 9.5-17.8 2.5-3.9 4.9-7.2 5.5-7.2zm-68.1 39.7l6.8 3.7c3.7 2.1 9.9 6.2 13.7 9 3.9 2.9 9.4 7.5 12.4 10.2 3 2.7 8.1 8.5 11.4 12.9 3.3 4.4 7.7 11.5 9.8 15.7 2.2 4.3 5 11.5 6.3 16 1.3 4.6 2.7 10.8 3.6 19.3l-3.1-6c-1.9-3.5-6.3-9.2-10.8-13.6-5.5-5.5-9.7-8.6-15.1-11.3-4.1-2-11.4-4.6-25-8.1l-2.9-9c-1.6-5-3.6-12.6-4.4-17-0.9-4.4-1.8-11.1-2.1-14.9zm135.7 0.3c0.2 0 0 2.6-0.3 5.8-0.3 3.1-1.2 9.5-2.1 14.2-0.8 4.7-2.8 12.7-4.4 17.8-1.6 5.1-3.3 9.4-3.7 9.7-0.4 0.2-4.3 1.3-8.7 2.5-4.4 1.1-11.4 3.7-15.5 5.7-5.7 2.7-9.5 5.6-15.6 11.7-4.8 5-9 10.3-10.7 13.6-1.8 3.8-2.7 4.8-2.7 3.3 0-1.3 0.6-5.3 1.4-9 0.8-3.7 2.4-9.5 3.6-12.8 1.1-3.3 3.4-8.7 5.1-12 1.7-3.3 4.9-8.7 7.2-12 2.2-3.3 7.4-9.4 11.6-13.6 4.2-4.1 10-9.4 13.1-11.6 3-2.3 9.1-6.2 13.5-8.7 4.4-2.5 8.1-4.6 8.2-4.6zm-67.7 20c25.4 0 26.9 0.1 26.1 1.8-0.5 0.9-1.9 2.6-3.1 3.7-1.2 1.1-4.4 4.9-7 8.5-2.6 3.6-6.6 10.1-8.8 14.5-2.2 4.4-4.6 9.9-5.4 12.3-0.7 2.3-1.7 4.3-2.1 4.2-0.4 0-1-1.2-1.3-2.7-0.3-1.5-2.3-6.4-4.3-10.8-2.1-4.4-5.6-10.7-7.8-14-2.2-3.3-6.2-8.3-8.7-11.2-2.5-2.9-4.6-5.5-4.6-5.8 0-0.3 12.1-0.5 27-0.5zm-71.5 34.6c8.9 0.2 15.5 0.9 21 2.4 4.4 1.1 11.1 3.5 15 5.4 3.8 1.9 9.3 5.6 12 8.3 2.8 2.6 6.5 7.3 8.3 10.3 1.7 3 3.2 5.9 3.2 6.3 0 0.4-10.5 0.7-46.5 0.7l-5-3.1c-2.8-1.7-8-5.5-11.5-8.3-3.6-2.9-9.3-8.4-12.8-12.4-3.4-3.9-6.2-7.6-6.2-8.2 0-0.5 2.1-1.2 4.7-1.4 2.6-0.2 10.6-0.2 17.8 0zm151 0c7.7 0.2 14.2 0.6 14.5 0.9 0.2 0.3-0.9 2.2-2.5 4.2-1.6 2.1-6.4 7.1-10.5 11.2-4.1 4-10.9 9.6-22.5 17.1h-23.3c-17.9 0-23.2-0.3-23.2-1.2 0-0.7 1.9-4.2 4.2-7.7 2.4-3.6 6.5-8.3 9.3-10.4 2.7-2.2 7-4.9 9.5-6.2 2.4-1.2 7.6-3.2 11.5-4.4 3.8-1.2 9.7-2.5 13-3 3.3-0.6 12.3-0.8 20-0.5z"/>
		<path id="Path 2" class="s2" d="m69.5 164.4l-26.5 0.6-0.4 18.5-0.3-8.4c-0.2-4.6-0.1-9 0.1-9.8 0.4-1 3.5-1.3 27.1-0.9zm28 0c13.7 0 19.6 0.2 13 0.3-6.6 0.2-17.8 0.2-25 0-7.2-0.1-1.8-0.3 12-0.3zm65 0c13.7 0 19.6 0.2 13 0.3-6.6 0.2-17.8 0.2-25 0-7.2-0.1-1.8-0.3 12-0.3zm41.5 0c7.4 0 10.3 0.1 6.5 0.3-3.8 0.2-9.9 0.2-13.5 0-3.6-0.2-0.4-0.3 7-0.3zm-161.3 57.1c0.2 6.1 0.2 16.2 0 22.5-0.1 6.3-0.3 1.4-0.3-11 0-12.4 0.2-17.6 0.3-11.5z"/>
		<path id="Path 3" class="s3" d="m130 288.5c29.4 0 41.3 0.1 26.5 0.2-14.8 0.2-38.9 0.2-53.5 0-14.6-0.1-2.4-0.2 27-0.2z"/>
		<path id="Path 4" class="s4" d="m217.7 169c0.2 2.5 0.2 6.8 0 9.5-0.2 2.8-0.3 0.7-0.3-4.5 0-5.2 0.1-7.5 0.3-5zm-175 24.5c0.2 2.2 0.2 5.6 0 7.5-0.2 1.9-0.4 0.1-0.4-4 0-4.1 0.2-5.7 0.4-3.5zm175 27.5c0.2 5.8 0.2 15.7 0 22-0.1 6.3-0.3 1.6-0.3-10.5 0-12.1 0.2-17.3 0.3-11.5z"/>
		<path id="Path 5" class="s5" d="m96 158.4c12.9 0 18.1 0.2 11.5 0.3-6.6 0.2-17.2 0.2-23.5 0-6.3-0.1-0.9-0.3 12-0.3zm68 0c12.9 0 18.1 0.2 11.5 0.3-6.6 0.2-17.2 0.2-23.5 0-6.3-0.1-0.9-0.3 12-0.3z"/>
		<path id="Path 6" class="s6" d="m130 89.4c15.1 0 21.2 0.2 13.5 0.3-7.7 0.2-20.1 0.2-27.5 0-7.4-0.1-1.1-0.3 14-0.3z"/>
		<path id="Path 7" fill-rule="evenodd" class="s0" d="m84.8 183c1.2 0 3.4 0.5 5 1.1 1.5 0.6 3.7 2 5 3.2 1.3 1.2 2.7 3.9 3.2 5.9 0.7 2.5 0.6 5.2 0 7.8-0.6 2.4-2.2 5-4 6.5-1.7 1.4-4.7 2.8-6.7 3.1-2.4 0.4-5.3 0-7.8-0.9-2.2-0.9-4.9-2.8-5.9-4.4-1-1.5-2.1-4.6-2.4-6.8-0.3-2.7 0.2-5.3 1.4-7.8q1.9-3.8 5.9-5.8c2.2-1 5-1.9 6.3-1.9zm-7.4 12.3c-0.3 1.2 0 3.5 0.8 5 0.7 1.5 2.5 3.2 4.1 3.7 1.5 0.6 3.5 0.7 4.5 0.3 0.9-0.3 2.5-1.3 3.5-2.2 1-1 1.8-3 1.8-5.1 0-2-0.8-4.2-1.8-5.2-1-1-3.4-1.8-5.5-1.8-2 0-4.4 0.7-5.2 1.5-0.9 0.8-1.9 2.5-2.2 3.7zm52.4-12.2c1.2 0 3.7 0.6 5.5 1.3 1.7 0.8 4.2 2.7 5.5 4.3 1.2 1.6 2.5 4.2 2.8 5.9 0.4 1.7 0.2 4.6-0.4 6.5-0.6 1.9-2.5 4.7-4.1 6.2-1.7 1.6-4.8 3.1-6.8 3.4-2.6 0.4-5.2 0-8.3-1.2-3.6-1.6-4.8-2.7-6.3-6.4-1.3-3-1.7-5.6-1.3-8 0.3-1.9 1.4-4.6 2.4-6 1-1.4 3.4-3.3 5.3-4.2 1.9-1 4.4-1.8 5.7-1.8zm-6.7 11.3c-0.8 1.9-0.8 3.6-0.1 5.7q1 3 4 4c2.1 0.7 3.9 0.7 5.8-0.1 1.5-0.6 3-1.6 3.4-2.2 0.4-0.7 0.8-2.8 0.8-4.7 0-2.1-0.6-4.2-1.7-5.2-1-1-3.4-1.8-5.3-1.8-1.9 0-4 0.4-4.6 0.8-0.6 0.4-1.6 2-2.3 3.5zm53.4-10.9c2.2 0.3 5.1 1.4 6.5 2.4 1.4 1 3.3 3.4 4.3 5.3 1.2 2.3 1.6 4.7 1.3 7.4-0.3 2.2-1.4 5.1-2.4 6.5-1 1.4-3.4 3.3-5.3 4.3-2.3 1.2-4.7 1.6-7.4 1.3-2.2-0.3-5.1-1.4-6.5-2.4-1.4-1-3.3-3.4-4.3-5.3-1.2-2.3-1.6-4.7-1.3-7.4 0.3-2.2 1.4-5.1 2.4-6.5 1-1.4 3.4-3.3 5.3-4.3 2.3-1.2 4.7-1.6 7.4-1.3zm-8.3 11.2c-0.5 1.6-0.5 4.1 0 5.6 0.5 1.8 1.8 3.1 3.8 3.8q3 1 6 0 3-1 4-4c0.7-2.1 0.7-3.9-0.1-5.8-0.6-1.5-1.6-3-2.2-3.4-0.7-0.4-2.8-0.8-4.7-0.8-1.9 0-4 0.4-4.7 0.9-0.7 0.4-1.6 2.1-2.1 3.7z"/>
	</g>
</svg>