<svg version="1.2" xmlns="http://www.w3.org/2000/svg" viewBox="0 0 253 299" width="253" height="299">
	<title>Icon_3</title>
	<style>
		.s0 { fill: #32485e } 
		.s1 { fill: #167e65 } 
		.s2 { fill: #2a5860 } 
		.s3 { fill: #187a65 } 
		.s4 { fill: #246362 } 
		.s5 { fill: #206b63 } 
		.s6 { opacity: .9;fill: #233544 } 
		.s7 { opacity: .9;fill: #283a4b } 
		.s8 { opacity: .7;fill: #17232d } 
		.s9 { opacity: .2;fill: #020303 } 
		.s10 { opacity: .3;fill: #05080a } 
	</style>
	<g id="Background">
		<path id="Path 0" fill-rule="evenodd" class="s0" d="m167.5 19.2c1.3 0.2 2.4 1.7 3.4 4.8 1.1 3.3 1.5 9.8 1.5 25 0 17-0.3 22.7-2.2 33.5-1.3 7.2-2.6 14.1-2.9 15.5-0.5 1.9 0.7 1 4.5-3.5 2.8-3.3 7.5-8.1 10.4-10.6 2.9-2.5 7.5-6.2 10.3-8.1 2.7-2 7.9-5.3 11.5-7.3 3.6-2 9.4-4.9 13-6.4 3.6-1.5 7.1-2.6 7.7-2.4 0.7 0.1 1.3 1.2 1.3 2.3 0 1.1-1.2 5.3-2.6 9.3-1.4 3.9-5.2 12.6-8.4 19.2-3.2 6.6-7.9 15.2-10.3 19-2.5 3.8-4.5 7.1-4.4 7.3 0.1 0.1 3.1-1.1 6.7-2.7 3.6-1.6 9.2-3.7 12.5-4.6 3.3-0.9 6.6-1.4 7.3-1.1 0.6 0.3 1.2 1.3 1.2 2.1 0 0.8-1.5 4.5-3.4 8.3-1.9 3.7-5.4 9.4-7.8 12.7-2.4 3.3-7.3 8.5-10.9 11.6-3.5 3-8.6 7.1-16.1 12.4l18.3 0.5c10.7 0.3 19.2 1 20.4 1.6 1.1 0.6 3.2 2.4 4.6 4 1.4 1.6 2.9 4.5 3.3 6.4 0.4 1.9 0.5 5 0.2 6.8-0.3 1.7-2.2 4.8-4.1 6.7-2.3 2.3-4.8 3.7-11 4.7l-6.4 42.1c-3.5 23.2-6.6 42.8-6.7 43.4-0.3 1-17.6 1.3-163.4 1.3l-0.9-2.3c-0.6-1.2-3.7-20.3-7-42.5-3.4-22.1-6.1-40.5-6.1-41 0-0.4-1.7-1-3.7-1.4-2.1-0.4-5-1.8-6.5-3.2-1.6-1.5-3.5-4.3-4.4-6.4q-1.6-3.7-0.9-7.2c0.4-1.9 1.6-4.7 2.6-6.3 1-1.5 3.4-3.5 5.2-4.5 2.5-1.3 6.5-1.8 34.2-2.7l-5-2.9c-2.7-1.7-7.9-5.9-11.5-9.5-4.5-4.5-7.8-9-10.3-14.1-2.1-4.1-3.7-8.3-3.7-9.3 0-0.9 0.8-2 1.8-2.4 0.9-0.4 4.4 0 7.7 0.9 3.3 0.9 6.1 1.5 6.3 1.5 0.1-0.1-1.8-3.6-4.3-7.7-2.5-4.1-5.9-10.9-7.6-15-1.7-4.1-3.4-9.8-3.6-12.5-0.4-3.5-0.1-5.3 0.8-6.1 1.1-0.9 3.2-0.7 8.9 0.7 4.1 1 11.6 3.9 16.5 6.4 6.9 3.5 8.8 4.2 8.3 2.8-0.4-1-2.1-6.8-3.7-12.8-1.7-6-3.6-15.4-4.3-20.7-1.1-8.5-1.1-10 0.2-11.3 1.4-1.4 2-1.2 7 2.1 3 2 8.6 6.1 12.4 9.2 3.8 3.2 9.7 8.8 13.1 12.7 3.4 3.8 7.8 9.3 13.5 17l-0.6-14c-0.5-10.6-0.2-16.2 1-23 0.8-5 2.3-11.5 3.3-14.5 1-3 2.5-5.6 3.3-5.8 0.9-0.2 3.5 2.2 6.3 6 2.7 3.5 6.8 10.3 9.2 15.3 2.4 5 5.6 13.3 7 18.5 1.5 5.2 2.9 10.2 3.2 11 0.2 0.8 2.2-3.2 4.2-9 2.1-5.8 6.2-15.2 9.1-21 3-5.8 8.2-14.1 11.5-18.4 3.3-4.4 6.4-8.5 7-9.3 0.5-0.7 1.9-1.2 3-1.1zm-145.5 152.3c0 3.7 0.5 4.8 2.8 6.5 2.7 2 3.7 2.1 101.2 2.1 97.5 0 98.5-0.1 101.3-2.1 1.5-1.1 2.9-3.3 3.2-5 0.3-1.7-0.1-4.2-0.9-5.8-0.7-1.5-2.1-3-3-3.5-0.9-0.4-46.4-0.7-101.1-0.7-98.2 0-99.5 0-101.5 2-1.4 1.4-2 3.3-2 6.5zm20.7 57.3l5.8 38.2c120.5 0 155.5-0.2 155.5-0.5 0-0.3 2.5-17 5.5-37.3 3.1-20.2 5.8-37.9 6-39.5l0.5-2.7c-175.4 0-180.2 0.1-179.7 1.7 0.3 1 3.2 19 6.4 40.1z"/>
		<path id="Path 1" fill-rule="evenodd" class="s1" d="m165.5 28.5l0.8 5.5c0.5 3 0.6 12 0.3 20-0.3 8.5-1.5 20.5-3 29-1.4 8-4 20.6-5.9 28-1.9 7.4-5.6 20.4-8.3 28.8-4.2 13-5.2 15.2-6.9 15.2-1.9 0-1.9-0.4-1.2-5.7 0.4-3.2 2.2-13.2 4.1-22.3 1.9-9.1 4.9-22.7 6.7-30.3 3.4-13.8 3.4-13.9 1.4-15.3-1.4-0.9-2.5-1-3.7-0.4-1.3 0.7-2.8 5.2-5.2 15.8-1.9 8.1-4.7 20.5-6.1 27.7-1.5 7.2-3.2 16.8-3.9 21.5-1 7.1-1.5 8.6-3.2 8.9-1.8 0.3-1.9-0.1-1.2-15.5 0.4-8.8 1.4-20.6 2.3-26.4 0.9-5.8 2.5-14.3 3.6-19 1.1-4.7 3.3-12.8 5-18 1.7-5.2 5.9-15.3 9.4-22.5 3.5-7.2 8.3-15.7 10.6-19zm-55.3 10.2c0.4 0.4 2.5 4.2 4.8 8.3 2.2 4.1 5.4 11.5 7.1 16.5 1.7 5 3.7 12.8 4.5 17.5 0.8 4.7 1.5 10.1 1.5 12-0.1 1.9-1 8.9-2 15.5-1.1 6.6-2 13.7-2 15.8 0 2-0.4 3.7-0.8 3.7-0.4 0-2.3-3.9-4.1-8.8-1.9-4.8-4.7-11.2-6.2-14.2-1.5-3-3.8-10.2-5-16-1.9-8.2-2.4-13.5-2.4-24 0-7.5 0.6-16.2 1.4-19.5 0.7-3.3 1.6-6.4 1.9-6.8 0.3-0.5 0.9-0.5 1.3 0zm-50.2 13l5.8 4.5c3.2 2.5 9.4 8.3 13.8 12.9 4.4 4.6 10.1 11.3 12.6 14.9 2.5 3.6 6.7 10.3 9.4 15 2.6 4.7 6.8 13.2 9.2 19 2.4 5.8 6 16.1 7.9 23 1.9 6.9 3.4 12.8 3.4 13.2 0 0.5-0.6 0.8-1.3 0.8-0.7-0.1-3.5-3.9-6.2-8.7-2.8-4.7-8.5-13.1-12.7-18.7-4.2-5.5-11-13.5-15-17.7-4-4.1-9.2-9.2-11.6-11.2-3-2.6-4.9-5.5-6.6-10-1.4-3.4-3.6-10.5-4.9-15.7-1.4-5.2-2.8-12.2-3.2-15.4zm156.4 17.3c0.4 0 0.7 0.4 0.8 0.8 0 0.4-1.4 4.1-3.1 8.2-1.7 4.1-5.3 11.8-8.1 17-2.8 5.2-7.4 12.9-10.1 17-2.8 4.1-8.3 11.6-12.2 16.5-4 5-11 13-15.6 17.8-8.1 8.5-8.6 8.9-16.3 8.2l7.6-10c4.2-5.5 11.7-14.6 16.6-20.2 7.8-8.8 9-10.6 8.1-12.3-0.6-1.2-1.8-1.9-3.1-1.7-1.4 0.1-5.6 4.2-11.4 11-5 5.9-9.2 10.4-9.3 10-0.1-0.5 0.6-3.5 1.4-6.8 0.9-3.3 3-8.5 4.6-11.5 1.7-3 5-8 7.3-11 2.4-3 7.1-8.2 10.6-11.5 3.6-3.3 9.1-7.9 12.4-10.1 3.3-2.3 9-5.8 12.5-7.7 3.6-2 6.9-3.7 7.3-3.7zm-179.1 16.5c1.8 0.4 7.5 2.7 12.6 5.1 5.1 2.4 11.8 6.5 15 9 3.1 2.6 9 7.9 13.1 11.8 4 3.9 10.3 10.9 14.1 15.6 3.7 4.7 9.6 12.8 13 18 6 9.1 6.1 9.5 3.9 9.8-1.8 0.3-3.8-1.1-8.4-6-3.3-3.4-11.2-11.9-17.6-18.8-10.2-10.9-11.9-12.3-13.5-11.4-1 0.6-2 1.8-2.2 2.5-0.1 0.8 6.3 8.5 14.3 17.2 8 8.6 14.5 15.9 14.5 16.2 0 0.3-1.3 0.5-3 0.5-1.9 0-5.7-1.8-10.7-5.1-4.3-2.9-12.5-10-18.3-15.8-5.7-5.9-12.8-14-15.6-18.1-2.9-4.1-7-11.3-9.3-16-2.2-4.7-4.3-10-4.6-11.8-0.6-3.4-0.6-3.4 2.7-2.7zm180.1 31.5c1.5 0 1.4 0.6-1 4.8-1.5 2.6-5.5 7.6-8.8 11.1-3.3 3.5-8.4 8.3-11.5 10.6-3 2.4-8.2 5.9-11.5 7.9-4.6 2.8-7 3.6-15.5 3.6l11.3-12.1c6.2-6.6 13.9-13.9 17.2-16.2 3.3-2.2 8.7-5.3 12-6.9 3.3-1.5 6.8-2.8 7.8-2.8zm-178.6 8.4c2.1 0.7 5.6 2.3 7.8 3.4 2.2 1.1 7.6 5.6 12 9.9 4.4 4.3 10.3 9.8 18 16.2l-3 0.1c-1.6 0-6.6-1.7-11-3.9-4.6-2.3-10.7-6.4-14.5-9.8-3.5-3.3-7.9-8.2-9.7-10.9-1.8-2.7-3.3-5.2-3.3-5.6-0.1-0.4 1.6-0.1 3.7 0.6z"/>
		<path id="Path 2" class="s2" d="m104.7 61.5c0.2 1.6 0.2 4.6 0 6.5-0.2 1.9-0.4 0.6-0.4-3 0-3.6 0.2-5.1 0.4-3.5z"/>
		<path id="Path 3" class="s3" d="m173 155.3c2.5 0 3.4 0.2 2 0.4-1.4 0.2-3.4 0.2-4.5 0-1.1-0.2 0-0.4 2.5-0.4z"/>
		<path id="Path 4" class="s4" d="m167.7 45c0.2 1.4 0.2 4.1 0 6-0.2 1.9-0.4 0.8-0.4-2.5 0-3.3 0.2-4.9 0.4-3.5z"/>
		<path id="Path 5" class="s5" d="m129.7 145.5c0.2 1.7 0.2 4.6 0 6.5-0.2 1.9-0.4 0.6-0.4-3 0-3.6 0.2-5.2 0.4-3.5z"/>
		<path id="Path 6" class="s6" d="m126 180.5c52 0 73.1 0.1 47 0.2-26.1 0.2-68.6 0.2-94.5 0-25.9-0.1-4.5-0.2 47.5-0.2z"/>
		<path id="Path 7" class="s7" d="m126 186.5c49.2 0 69.3 0.1 44.5 0.2-24.8 0.2-65 0.2-89.5 0-24.5-0.1-4.2-0.2 45-0.2z"/>
		<path id="Path 8" class="s8" d="m126 267.5c42.6 0 59.9 0.1 38.5 0.2-21.4 0.2-56.3 0.2-77.5 0-21.2-0.1-3.6-0.2 39-0.2z"/>
		<path id="Path 9" class="s9" d="m50 162.4c11.8 0 16.5 0.2 10.5 0.3-6 0.2-15.7 0.2-21.5 0-5.8-0.1-0.8-0.3 11-0.3zm31 0c5.2 0 7.3 0.1 4.5 0.3-2.8 0.2-7 0.2-9.5 0-2.5-0.2-0.2-0.3 5-0.3zm72-0.1c3.6 0 4.9 0.2 3 0.4-1.9 0.2-4.8 0.2-6.5 0-1.7-0.2-0.1-0.4 3.5-0.4zm16.5 0.1c4.9 0 7.2 0.1 5 0.3-2.2 0.2-6.3 0.2-9 0-2.8-0.2-0.9-0.3 4-0.3zm32 0c12.1 0 16.8 0.2 10.5 0.3-6.3 0.2-16.2 0.2-22 0-5.8-0.1-0.6-0.3 11.5-0.3z"/>
		<path id="Path 10" class="s10" d="m97 162.3c4.1 0 5.7 0.2 3.5 0.4-2.2 0.2-5.6 0.2-7.5 0-1.9-0.2-0.1-0.4 4-0.4zm14.5 0c3.3 0 4.9 0.2 3.5 0.4-1.4 0.2-4.1 0.2-6 0-1.9-0.2-0.8-0.4 2.5-0.4zm20 0c2.8 0 4.1 0.2 2.9 0.4-1.1 0.2-3.4 0.2-5 0-1.6-0.2-0.7-0.4 2.1-0.4zm11 0c2.8 0 4.1 0.2 2.9 0.4-1.1 0.2-3.4 0.2-5 0-1.6-0.2-0.7-0.4 2.1-0.4z"/>
	</g>
</svg>