<svg version="1.2" xmlns="http://www.w3.org/2000/svg" viewBox="0 0 220 372" width="220" height="372">
	<title>Icon_1</title>
	<style>
		.s0 { fill: #32485e } 
		.s1 { fill: #8ea7d6 } 
	</style>
	<g id="Background">
		<path id="Path 0" fill-rule="evenodd" class="s0" d="m118 0.4q3.5 0.5 6.8 4.1c2.3 2.5 3.2 4.4 3.2 7 0 1.9-0.6 4.7-1.3 6.1-0.6 1.4-2.7 3.4-7.7 6.4v36.5l9.4-9.5c7.9-7.9 9.3-9.8 8.6-11.5-0.4-1.1-0.5-3.3-0.1-4.9 0.3-1.6 1.8-4 3.4-5.3 1.7-1.4 4-2.3 6.2-2.3 2.6 0 4.3 0.8 6.5 3 2.3 2.3 3 3.9 3 6.8 0 2-0.8 4.7-1.8 5.8-0.9 1.2-2.8 2.7-4.2 3.4-1.5 0.7-3.9 1-6 0.6-3.4-0.7-3.8-0.4-25 20.9v29l9.4-9.5c7.9-7.9 9.3-9.8 8.6-11.5-0.4-1.1-0.5-3.3-0.1-4.9 0.3-1.6 1.8-4 3.4-5.3 1.7-1.4 4-2.3 6.2-2.3 2.6 0 4.3 0.8 6.5 3 2.3 2.3 3 3.9 3 6.8 0 2-0.8 4.7-1.8 5.8-0.9 1.2-2.8 2.7-4.2 3.4-1.5 0.7-3.9 1-6 0.6-3.4-0.7-3.8-0.4-25 20.9v29l9.4-9.5c7.9-7.9 9.3-9.8 8.6-11.5-0.4-1.1-0.5-3.3-0.1-4.9 0.3-1.6 1.8-4 3.4-5.3 1.7-1.4 4-2.3 6.2-2.3 2.6 0 4.3 0.8 6.5 3 2.3 2.3 3 3.9 3 6.8 0 2-0.8 4.7-1.8 5.8-0.9 1.2-2.8 2.7-4.2 3.4-1.5 0.7-3.9 1-6 0.6-3.4-0.7-3.8-0.4-25 20.9v47.5h8.3c5.5-0.1 8.6 0.3 9.3 1.2 0.6 0.7 1.4 5.4 1.8 10.3 0.4 4.9 1.5 13.3 2.6 18.5 1 5.2 3.3 13.8 5 19 1.7 5.2 5.8 15.1 9 22 3.2 6.9 7 16.6 8.4 21.5 1.4 4.9 3.1 12.1 3.8 16 0.8 4.3 1.3 14.8 1.2 27.5 0 13.6-0.4 21.4-2.4 26h-100l-0.6-2.2c-0.3-1.3-0.8-10.4-1.1-20.3-0.3-13.3-0.1-20.6 1.1-28 0.8-5.5 2.7-14.1 4.1-19 1.5-4.9 5.3-14.6 8.5-21.5 3.1-6.9 7.1-16.8 8.8-22 1.7-5.2 4-14 5.1-19.5 1.1-5.5 2.3-13.8 2.7-18.5 0.4-4.7 1.2-9.1 1.8-9.8 0.7-0.9 3.8-1.3 17.6-1.2l-0.1-47.5-10.7-10.8c-10.4-10.5-10.8-10.8-14.2-10.2q-3.5 0.7-6.8-0.9c-1.7-0.9-3.7-2.5-4.2-3.6-0.6-1.1-1-3.6-1-5.5 0-2.5 0.8-4.3 2.9-6.5 2.2-2.2 3.9-3 6.5-3 2.7 0 4.4 0.8 6.6 3 2.6 2.6 3 3.7 2.7 7.5-0.2 4.5-0.1 4.6 18.3 23l-0.1-29-10.7-10.8c-10.4-10.5-10.8-10.8-14.2-10.2q-3.5 0.7-6.8-0.9c-1.7-0.9-3.7-2.5-4.2-3.6-0.6-1.1-1-3.6-1-5.5 0-2.5 0.8-4.3 2.9-6.5 2.2-2.2 3.9-3 6.5-3 2.7 0 4.4 0.8 6.6 3 2.6 2.6 3 3.7 2.7 7.5-0.2 4.5-0.1 4.6 18.3 23l-0.1-29-10.7-10.8c-10.4-10.5-10.8-10.8-14.2-10.2q-3.5 0.7-6.8-0.9c-1.7-0.9-3.7-2.5-4.2-3.6-0.6-1.1-1-3.6-1-5.5 0-2.5 0.8-4.3 2.9-6.5 2.2-2.2 3.9-3 6.5-3 2.7 0 4.4 0.8 6.6 3 2.6 2.6 3 3.7 2.7 7.5-0.2 4.5-0.1 4.6 18.3 23v-36.5l-2.8-1.4c-1.5-0.7-3.5-2.5-4.5-4-0.9-1.4-1.7-4.2-1.7-6.1 0-1.9 0.6-4.7 1.4-6.2 0.7-1.6 2.9-3.6 4.7-4.6 2.2-1.1 4.7-1.6 6.9-1.3zm-6.9 9.4c-0.8 1.5-0.8 3-0.1 4.7 0.5 1.4 2 2.8 3.2 3.1 1.3 0.3 3.3 0.3 4.5 0 1.3-0.3 2.6-1.6 3-2.8 0.4-1.3 0.6-3 0.4-3.8-0.2-0.8-1-2.3-1.9-3.3-1-1-2.6-1.7-3.7-1.7-1.1 0-2.5 0.4-3.1 0.8-0.6 0.4-1.6 1.7-2.3 3zm-28.6 28.7c0.3 0.8 1.3 1.7 2.2 2 1 0.3 2.6 0.2 3.6-0.2 1-0.5 2-1.4 2.2-2 0.3-0.7 0-2.2-0.5-3.3-0.6-1.2-2-2-3.5-2-1.4 0-2.9 0.8-3.5 2-0.5 1.1-0.8 2.7-0.5 3.5zm60.2 0c0.7 1.4 2.1 2.5 3 2.5 1 0 2.4-0.4 3.1-0.8 0.7-0.4 1.2-2 1-3.7-0.2-2.4-0.8-3.1-2.9-3.3-1.4-0.2-3.2 0.4-4 1.3-1.1 1.3-1.2 2-0.2 4zm-60.2 36c0.3 0.8 1.3 1.7 2.2 2 1 0.3 2.6 0.2 3.6-0.2 1-0.5 2-1.4 2.2-2 0.3-0.7 0-2.2-0.5-3.3-0.6-1.2-2-2-3.5-2-1.4 0-2.9 0.8-3.5 2-0.5 1.1-0.8 2.7-0.5 3.5zm60.2 0c0.7 1.4 2.1 2.5 3 2.5 1 0.1 2.4-0.5 3.1-1.2 0.7-0.7 1.1-2.4 1-3.8-0.2-1.9-1-2.6-2.9-2.8-1.4-0.2-3.2 0.4-4 1.3-1.1 1.3-1.2 2-0.2 4zm-60.2 36c0.3 0.8 1.3 1.7 2.2 2 1 0.3 2.6 0.2 3.6-0.2 1-0.5 2-1.4 2.2-2 0.3-0.7 0-2.2-0.5-3.3-0.6-1.2-2-2-3.5-2-1.4 0-2.9 0.8-3.5 2-0.5 1.1-0.8 2.7-0.5 3.5zm60.2 0c0.7 1.4 2.1 2.5 3 2.5 1 0.1 2.4-0.5 3.1-1.2 0.7-0.7 1.1-2.4 1-3.8-0.2-1.9-1-2.6-2.9-2.8-1.4-0.2-3.2 0.4-4 1.3-1.1 1.3-1.2 2-0.2 4zm-42.2 88.3c-0.3 3.1-1.5 10.6-2.7 16.7-1.1 6.1-2.8 13.6-3.9 16.8l-1.9 5.7h21v-45h-11.9zm19.5 39.3c15.5 0 20-0.4 20-0.8 0-0.4-0.9-3.9-1.9-7.7-1.1-3.9-2.6-10.9-3.5-15.5-0.8-4.7-1.7-11.4-2-14.8l-0.6-6.2h-12z"/>
		<path id="Path 1" class="s1" d="m113 245v21c0 20 0.1 21 2 22 1.5 0.7 2.4 0.6 3.5-0.5 1.2-1.2 1.5-5.1 1.5-42.5h23l1.2 3.3c0.7 1.7 3.1 7 5.3 11.7 2.3 4.7 5.2 11.4 6.4 15 1.3 3.6 3.2 10.3 4.3 15 1.3 5.9 2.1 13.9 2.5 26 0.3 9.6 0.3 19.6-0.7 27h-91l-0.6-3.7c-0.4-2.1-0.4-12.4-0.2-22.8 0.5-16.8 0.9-20.3 3.6-30.5 1.7-6.6 5.4-16.8 8.7-24 3.1-6.9 6.1-13.5 6.6-14.7 0.8-2.2 1.4-2.3 23.9-2.3z"/>
	</g>
</svg>